<svg xmlns="http://www.w3.org/2000/svg" xmlns:xlink="http://www.w3.org/1999/xlink" viewBox="0 0 195.18 109.18"><defs><radialGradient id="a" cx="48.27" cy="518.82" r="15.32" gradientTransform="matrix(1, 0, 0, -1, 0, 543.41)" gradientUnits="userSpaceOnUse"><stop offset="0.76" stop-color="#e1e1e1"/><stop offset="0.78" stop-color="#e6e6e6" stop-opacity="0.64"/><stop offset="0.8" stop-color="#ececec" stop-opacity="0.3"/><stop offset="0.81" stop-color="#efefef" stop-opacity="0.08"/><stop offset="0.82" stop-color="#f0f0f0" stop-opacity="0"/></radialGradient><linearGradient id="b" x1="97.59" y1="466.16" x2="97.59" y2="434.23" gradientTransform="matrix(1, 0, 0, -1, 0, 543.41)" gradientUnits="userSpaceOnUse"><stop offset="0" stop-color="#e0e0e0"/><stop offset="0.29" stop-color="#e0e0e0" stop-opacity="0.99"/><stop offset="0.43" stop-color="#e1e1e1" stop-opacity="0.96"/><stop offset="0.54" stop-color="#e3e3e3" stop-opacity="0.9"/><stop offset="0.64" stop-color="#e6e6e6" stop-opacity="0.81"/><stop offset="0.72" stop-color="#e9e9e9" stop-opacity="0.71"/><stop offset="0.8" stop-color="#ededed" stop-opacity="0.57"/><stop offset="0.87" stop-color="#f2f2f2" stop-opacity="0.41"/><stop offset="0.93" stop-color="#f8f8f8" stop-opacity="0.23"/><stop offset="0.99" stop-color="#fefefe" stop-opacity="0.03"/><stop offset="1" stop-color="#fff" stop-opacity="0"/></linearGradient><radialGradient id="c" cx="145.65" cy="-400.9" r="20.25" gradientTransform="translate(1.02 458.82)" gradientUnits="userSpaceOnUse"><stop offset="0" stop-color="#e0e0e0"/><stop offset="1" stop-color="#ccc" stop-opacity="0"/></radialGradient><radialGradient id="d" cx="97.59" cy="151.52" r="66" gradientTransform="translate(0 -92.32)" gradientUnits="userSpaceOnUse"><stop offset="0" stop-color="#cfcfcf"/><stop offset="1" stop-color="#d4d4d4"/></radialGradient><linearGradient id="e" x1="97.33" y1="-333.28" x2="97.33" y2="-337.91" gradientTransform="translate(0 428.29)" gradientUnits="userSpaceOnUse"><stop offset="0" stop-color="#fff" stop-opacity="0"/><stop offset="1" stop-color="#b3b3b3" stop-opacity="0.8"/></linearGradient><radialGradient id="f" cx="116.89" cy="491.78" r="1.24" gradientTransform="matrix(1, 0, 0, -1, 0, 543.41)" gradientUnits="userSpaceOnUse"><stop offset="0.76" stop-color="#ebebeb"/><stop offset="0.77" stop-color="#ececec" stop-opacity="0.86"/><stop offset="0.78" stop-color="#eee" stop-opacity="0.66"/><stop offset="0.79" stop-color="#f0f0f0" stop-opacity="0.48"/><stop offset="0.8" stop-color="#f2f2f2" stop-opacity="0.33"/><stop offset="0.81" stop-color="#f3f3f3" stop-opacity="0.21"/><stop offset="0.82" stop-color="#f4f4f4" stop-opacity="0.12"/><stop offset="0.83" stop-color="#f4f4f4" stop-opacity="0.05"/><stop offset="0.85" stop-color="#f5f5f5" stop-opacity="0.01"/><stop offset="0.87" stop-color="#f5f5f5" stop-opacity="0"/></radialGradient></defs><circle cx="48.28" cy="24.59" r="10.69" style="fill:#cdcdcd"/><path d="M59,24.59a10.69,10.69,0,0,1-16,9.29A75.81,75.81,0,0,1,58.59,21.66,10.33,10.33,0,0,1,59,24.59Z" style="fill:#c8c8c8"/><path d="M57.66,24.1l-1-.29h-.12a6.31,6.31,0,0,0-2.45,0c-1.49.44-.63,1.56-2.41,1.05-.23-.06-.24-1.12-.13-1.53,0-.17.84-.32,1.18-.41a.61.61,0,0,0,.47-.55l-.34-.77a.65.65,0,0,1,.35-.58l1.38-.52a1.54,1.54,0,0,0,.73-.6l1.61-1.58a10.68,10.68,0,0,1,2,6.27" style="fill:#b6b6b6"/><path d="M51.09,31.08c.09.29.39,1.41.65,2.6a4.83,4.83,0,0,0,.18.85,11.14,11.14,0,0,0,3.67-2.45L51.07,31v.08Z" style="fill:#afafaf"/><path d="M48.33,17.77l-.82,2.88c-.33,1.15-1.31.87-2.06.66-1.85-.52-2,.54-2.23,1.23s-.32,1.15-.84,1,0-1.25-.88-1.5L41,21.9l-2.81-.8a10.7,10.7,0,0,1,8.34-7,5.18,5.18,0,0,0-.62,1.1c-.2.69.5,1.07,1.48,1.35C48.53,16.83,48.38,17.59,48.33,17.77ZM46.52,28.45,46.08,30a12.05,12.05,0,0,1-1,1.17,19,19,0,0,0-2.28,2.62,11.45,11.45,0,0,1-1.29-.9c-.18-.14-.35-.3-.51-.45l.64-2.26V25.83l.66-.37h.08l.46.12.92.26c.41.12.81.67,1.06,1.11a2.07,2.07,0,0,0,1.66,1.54Z" style="fill:#b9b9b9"/><path d="M59,24.59a10.65,10.65,0,0,1-4.74,8.89,5.44,5.44,0,0,0-2.85-2.39h0c-.23-.1-2.18-1-1.62-2.95.18-.63.66-2.3,3.53-1.48,1.73.49,3,.26,3.21-.33a3.5,3.5,0,0,0,.1-2.47.11.11,0,0,0,.08,0h0c.63-.35,1.07-1.62,1.93-2.08A10.27,10.27,0,0,1,59,24.59Z" style="fill:#9b9b9b"/><path d="M46.84,29.49c-.53,1.89-1.72,1.68-1.72,1.68a3.51,3.51,0,0,0-3.53,1.72c-.18-.14-.35-.3-.51-.45s-.36-.34-.52-.52c.15-1.24-.26-3.35.26-5.1.33-1.15-1.14-2.32-1.51-2.8A8.49,8.49,0,0,1,38,21.89a7.24,7.24,0,0,1,.25-.79,10.67,10.67,0,0,1,2.64-4.16,3.21,3.21,0,0,1,.27,2.13c-.25.87.71,1.89.41,2.92a2.28,2.28,0,0,0-.51-.09.76.76,0,0,0-.85.52l-.16.57c-.09.29.09.51.44.63s.48.25.4.55a.83.83,0,0,0,.42.93l1.09.31v.06c-.61,2.2.24,3.12,1.38,3.44,2.19.63,2.8-.44,2.8-.44.33.1.37.79.31,1Z" style="fill:#aaa"/><path d="M48.28,9.27A15.32,15.32,0,1,0,63.59,24.6h0A15.32,15.32,0,0,0,48.28,9.27Zm0,26A10.69,10.69,0,1,1,59,24.57v0A10.7,10.7,0,0,1,48.28,35.28Z" style="fill:url(#a)"/><path d="M153,34.73a75.54,75.54,0,0,0-25.25-17.55,77.6,77.6,0,0,0-60.34,0A75.38,75.38,0,0,0,43,33.88c-.28.28-.55.56-.82.85C27.44,50.21,19.32,71.39,19.31,94.4c.33.34,3.6,3.41,14.6,6.51a155.24,155.24,0,0,0,23.81,4.42,361.16,361.16,0,0,0,39.87,2.06,356.34,356.34,0,0,0,39.87-2.06,155.24,155.24,0,0,0,23.81-4.42c11-3.09,14.27-6.18,14.6-6.51C175.87,71.4,167.74,50.21,153,34.73Z" style="fill:#fff;isolation:isolate;opacity:0.44999998807907104"/><path d="M91,0l.26,1.84a.38.38,0,0,0,.34.34l1.84.26-1.87.26a.4.4,0,0,0-.34.33L91,4.87,90.76,3a.37.37,0,0,0-.12-.2.38.38,0,0,0-.23-.11l-1.82-.23,1.85-.26a.4.4,0,0,0,.22-.14.39.39,0,0,0,.11-.22Z" style="fill:#fff"/><path d="M157.72,26.27l.35,2.42a.55.55,0,0,0,.44.44l2.42.35-2.42.36a.51.51,0,0,0-.44.44l-.35,2.42-.36-2.42a.49.49,0,0,0-.14-.3.57.57,0,0,0-.3-.15l-2.42-.35,2.42-.35a.53.53,0,0,0,.45-.44ZM59.87,73.9l.21,1.46a.31.31,0,0,0,.09.18.38.38,0,0,0,.17.08l1.46.21L60.34,76a.4.4,0,0,0-.18.1.38.38,0,0,0-.08.17l-.21,1.46-.21-1.46a.4.4,0,0,0-.1-.18.26.26,0,0,0-.17-.09l-1.45-.21,1.45-.21a.31.31,0,0,0,.18-.09.26.26,0,0,0,.09-.17Z" style="fill:#fafafa"/><circle cx="68.75" cy="9.79" r="0.77" style="fill:#fff"/><path d="M99,39.91,99.16,41a.21.21,0,0,0,.07.13.16.16,0,0,0,.13.06l1.06.16-1.07.15a.19.19,0,0,0-.12.07.21.21,0,0,0-.07.13L99,42.74l-.16-1.06a.31.31,0,0,0-.06-.13.21.21,0,0,0-.13-.07l-1.07-.15,1.07-.16a.22.22,0,0,0,.13-.06.31.31,0,0,0,.06-.13ZM114.2,27.3l.15,1.06a.26.26,0,0,0,.2.2l1.07.15-1.07.16a.16.16,0,0,0-.13.06.21.21,0,0,0-.07.13l-.15,1.07L114,29.06a.21.21,0,0,0-.19-.19l-1.07-.16,1.07-.15a.21.21,0,0,0,.13-.07.16.16,0,0,0,.06-.13ZM54.72,49.44l.29,2a.47.47,0,0,0,.38.38l2,.28-2,.3a.39.39,0,0,0-.25.12.43.43,0,0,0-.13.26l-.28,2-.3-2a.41.41,0,0,0-.38-.38l-2-.29,2-.29a.43.43,0,0,0,.26-.13.42.42,0,0,0,.12-.25ZM37,69.52l.15,1.07a.26.26,0,0,0,.2.2l1.06.15-1.06.16a.16.16,0,0,0-.13.06.21.21,0,0,0-.07.13L37,72.36l-.16-1.07a.21.21,0,0,0-.2-.19l-1.07-.16,1.07-.15a.21.21,0,0,0,.13-.07.16.16,0,0,0,.06-.13ZM137.37,40.69l.16,1.06a.31.31,0,0,0,.06.13.21.21,0,0,0,.13.07l1.07.15-1.07.16a.21.21,0,0,0-.19.19l-.16,1.07-.15-1.07a.21.21,0,0,0-.07-.13.16.16,0,0,0-.13-.06L136,42.1,137,42a.23.23,0,0,0,.2-.2ZM51.88,69.52,52,70.59a.23.23,0,0,0,.19.2l1.07.15-1.07.16a.21.21,0,0,0-.19.19l-.16,1.07-.15-1.07a.21.21,0,0,0-.07-.13.16.16,0,0,0-.13-.06l-1.06-.16,1.06-.15a.23.23,0,0,0,.2-.2ZM167.24,72.1l.16,1.07a.21.21,0,0,0,.07.13.27.27,0,0,0,.12.06l1.07.16-1.07.15a.21.21,0,0,0-.19.2l-.16,1.06-.15-1.07a.19.19,0,0,0-.07-.12.21.21,0,0,0-.13-.07l-1.06-.15,1.07-.16a.27.27,0,0,0,.12-.06.21.21,0,0,0,.07-.13Z" style="fill:#fafafa"/><path d="M90.77,20.6,91,22.05a.31.31,0,0,0,.09.18.26.26,0,0,0,.17.09l1.46.21-1.46.21a.31.31,0,0,0-.18.09A.37.37,0,0,0,91,23l-.21,1.45L90.59,23a.4.4,0,0,0-.1-.18.26.26,0,0,0-.17-.09l-1.46-.21,1.46-.21a.32.32,0,0,0,.27-.27Zm59.48,54.07.21,1.46a.32.32,0,0,0,.27.27l1.45.21-1.45.21a.31.31,0,0,0-.18.09.26.26,0,0,0-.09.17l-.21,1.46L150,77.08a.31.31,0,0,0-.09-.18.37.37,0,0,0-.18-.08l-1.45-.21,1.45-.21a.4.4,0,0,0,.18-.1.26.26,0,0,0,.09-.17ZM123.73,45.06l.21,1.46a.31.31,0,0,0,.09.18.38.38,0,0,0,.17.08l1.46.21-1.46.21a.4.4,0,0,0-.18.1.38.38,0,0,0-.08.17l-.21,1.45-.21-1.45a.4.4,0,0,0-.1-.18.26.26,0,0,0-.17-.09l-1.46-.2,1.46-.21a.31.31,0,0,0,.18-.09.26.26,0,0,0,.09-.17Zm7-16,.38,2.62a.57.57,0,0,0,.48.48l2.62.37-2.62.47a.55.55,0,0,0-.48.48l-.38,2.61-.39-2.62a.49.49,0,0,0-.16-.32.58.58,0,0,0-.31-.16l-2.62-.38,2.62-.38a.57.57,0,0,0,.48-.48Z" style="fill:#fff"/><circle cx="129.78" cy="2.06" r="0.77" style="fill:#fafafa"/><circle cx="118.45" cy="7.21" r="0.51" style="fill:#fff"/><circle cx="159.13" cy="79.82" r="0.51" style="fill:#fff"/><circle cx="144.71" cy="8.75" r="1.03" style="fill:#fafafa"/><circle cx="31.67" cy="57.68" r="0.77" style="fill:#eee"/><circle cx="91.41" cy="48.43" r="0.77" style="fill:#eee"/><circle cx="30.64" cy="38.37" r="0.52" style="fill:#fafafa"/><path d="M0,109.18S22.33,77.25,97.59,77.25s97.59,31.93,97.59,31.93Z" style="fill:url(#b)"/><circle cx="146.39" cy="58.07" r="20.21" style="fill:url(#c)"/><circle cx="146.39" cy="58.07" r="4.76" style="fill:#fff"/><path d="M97.59,12.1a75.33,75.33,0,0,1,29.76,6,74.43,74.43,0,0,1,24.92,17.31c14.45,15.18,22.45,35.94,22.57,58.5-1,.84-4.81,3.46-14.13,6.07a155.19,155.19,0,0,1-23.63,4.33,359.27,359.27,0,0,1-39.49,2,359.27,359.27,0,0,1-39.49-2A156.38,156.38,0,0,1,34.47,100c-9.33-2.61-13.1-5.24-14.13-6.07.12-22.57,8.12-43.32,22.57-58.5a74.26,74.26,0,0,1,24.92-17.3,75.33,75.33,0,0,1,29.76-6m0-2.13A77.08,77.08,0,0,0,41.42,34C26.5,49.7,18.28,71.16,18.28,94.46a.88.88,0,0,0,.26.63c.51.54,13.37,13.2,79.05,13.32,65.68-.12,78.54-12.78,79-13.32a.88.88,0,0,0,.26-.63c0-23.3-8.22-44.76-23.14-60.44A77.1,77.1,0,0,0,97.59,10Z" style="fill:url(#d)"/><path d="M108,61.28h-3.67a.51.51,0,0,1-.51-.51h0a.53.53,0,0,1,.51-.52H108a7.53,7.53,0,0,0,1.64-.15h0a1,1,0,0,0,.86-.89,4.89,4.89,0,0,0-.18-1.07c-.53-2.3-1.09-4.28-1.45-5.58v-.14l-.14-.49c-.26-1-.94-3.51-1.68-3.51a.52.52,0,0,1,0-1c1.53,0,2.19,2.47,2.68,4.27a1.69,1.69,0,0,0,.13.48v.14c.37,1.31.93,3.3,1.47,5.62a5.93,5.93,0,0,1,.19,1.33,2,2,0,0,1-1.7,1.9A7.93,7.93,0,0,1,108,61.28Z" style="fill:#ebebeb"/><path d="M108.35,37.45l-.26-.11-4.32,21.11H104a1.37,1.37,0,0,0,1.37-1.08L109.15,39a1.39,1.39,0,0,0-.8-1.54Z" style="fill:#fafafa"/><path d="M140.85,90.38A4.65,4.65,0,0,1,136.21,95H58.45a4.63,4.63,0,0,1-4.63-4.63h0Z" style="isolation:isolate;opacity:0.20000000298023224;fill:url(#e)"/><path d="M94.24,57.94l1.29.26h2.26a4.71,4.71,0,0,1,.91.18.77.77,0,0,1,.48.28c.28.35,1.24,1.23,1.24,1.49,0,.06,0,.19-.21.21a8.55,8.55,0,0,1-1.58-.77l-1-.15-.26.25a4.13,4.13,0,0,0,.77.35c.26.09.26.18.26.31s0,.17-.21.19-.87-.07-1.31-.07A2.24,2.24,0,0,1,95.59,60h-1.8Z" style="fill:#74c2ff"/><path d="M82.91,47.89c-1,0-2.32.26-2.32,3.61,0,1.54.58,5.87,2.06,7.73,1,1.28,9.69.77,11.08.77l.51-2.06s-3.84-.82-7.91-1.5c0,0-.34-1.4-.9-4.1C84.71,48.92,84,47.89,82.91,47.89Z" style="fill:#1b3963"/><path d="M83.17,47.12c1.29.77,2.32,4,2.32,6.7,0,3.34-.78,7-.52,10.3A22.62,22.62,0,0,1,85,68H77V47.12Z" style="fill:#22477d"/><path d="M83.59,86.42a1.29,1.29,0,0,1-.18-.67,1.15,1.15,0,0,1,.37-.78c1.17-1.28,1.69-1.8,1.69-1.8l2.12,1.55a2.82,2.82,0,0,0-.78,2.06,2.51,2.51,0,0,0,.52,1.54,2.23,2.23,0,0,1,1,2.06H86.69a1,1,0,0,1-.87-.48Z" style="fill:#212121"/><path d="M81.37,70.81a72.22,72.22,0,0,0,7.46,1.29c-1.8,4.63-4.37,11.84-4.37,11.84l3.34,1.55s7.4-10.82,7.4-14.86c0-2.14-1.73-4.71-12-6-3.59-.45-4.89,1.29-4.89,2.83C78.28,69.52,79.82,70.43,81.37,70.81Z" style="fill:#6d4c41"/><path d="M96.3,85.75a24.07,24.07,0,0,0,1.29,2.83c.32.66.54,1.8,1.29,1.8.45,0,5.53-2.09,6.18-2.31,0-.52-.78-1.29-2.06-1.29-1,0-2.06.25-2.58.25s-1.29-2.31-1.29-2.31Z" style="fill:#212121"/><path d="M78.79,66.18c-5.12,0-7,2.06-7,2.06s0,5.4,4.89,5.4H89.86c0,2.58,6.42,13,6.44,13.14l3.35-1.55S96.3,74.85,94.53,70.35c-.35-.89-1.06-1.6-3-2.29-5-1.81-11.79-1.88-12.79-1.88Z" style="fill:#8d6e63"/><path d="M95,61.28H90.64c0-1,.51-1.28,1.54-1.28C94.76,60,95,61.28,95,61.28Z" style="fill:#fafafa"/><path d="M88.59,59h.77c.37,0,1.82-.52,2.58-.52a8.63,8.63,0,0,1,1.8.52,2.85,2.85,0,0,1,1,1.54c0,.19-.07.26-.26.26a13,13,0,0,0-2.06-.26c-.39,0-1.8.26-2.32.26H88.59ZM84.71,45.83a3.11,3.11,0,0,1-1.28-.25,3.84,3.84,0,0,0-.26,1.54c0,.52-.26,1-.77,1-4.38,0-3.61-3.6-3.61-3.6s.77-.78.77-1.29v-2c0-3.86,1.29-5.67,4.12-5.67s4.9,2,4.9,4.12C88.59,42.49,86.77,45.83,84.71,45.83Z" style="fill:#74c2ff"/><path d="M83.68,34.76a4.37,4.37,0,0,0-4.63,4.09,5,5,0,0,0,0,.55,20.18,20.18,0,0,0,.54,3.09v.77a9.6,9.6,0,0,0,2.69-.64.77.77,0,0,0,.4-.65,5.68,5.68,0,0,1-.25-1.28,1,1,0,0,1,.77-1c.51,0,.77.32.77,1.29a.69.69,0,0,0,.77-.51c.15-.59.7-2.06,1.29-2.06s1.26,1.24,2.56,1.24C88.59,37.85,88.06,34.76,83.68,34.76Z" style="fill:#0037b4"/><path d="M84.2,60.51a35.73,35.73,0,0,0,.51-8c-.13-3.93-1.54-5.41-1.54-5.41a1.54,1.54,0,0,1-1,.26A4,4,0,0,1,78.82,45L77,47.1V68h3.57s3.09-1.07,3.09-3.09C83.68,64.44,84,61.83,84.2,60.51Z" style="fill:#ffb300"/><path d="M78.79,44.55a17.47,17.47,0,0,0-4.89,5.31c-1.47,2.83-1.79,8.44-1.74,10.88-.06,5.95-.57,6.47-.57,9.26,0,0,1,1,4.64,1s4.87-2.36,4.89-2.83a80.45,80.45,0,0,1,.51-8.5c.16-1.29,1-3.86,1-6.44a7.84,7.84,0,0,0-1.28-4.38C78.79,45.32,78.79,44.55,78.79,44.55Z" style="fill:#22477d"/><path d="M77.76,48.67c-1.8,0-2.83,1.54-2.83,6.18,0,2,.36,4.77,1.29,5.66.55.54,2.31.77,4.12.77h8.25V59c-3.35-.77-8.5-1.81-8.5-1.81V53C80.08,50.47,79.59,48.67,77.76,48.67Z" style="fill:#254e8a"/><path d="M102,61.28H96.3V61a.25.25,0,0,1,.24-.26l5.15-.48a.26.26,0,0,1,.28.23Z" style="fill:#fafafa"/><path d="M102,61.28H96.3l5.67-.51Z" style="fill:#e0e0e0"/><path d="M64.59,47.89c0,9.73,3.09,11.5,3.09,18.29,0,5.42-.38,10.55,6.86,10.55H85.49v-1.8a1.29,1.29,0,0,0-1.29-1.29H74.59a4.5,4.5,0,0,1-2.9-.71c-.89-.89-.88-3.47-.87-6v-.78a25.5,25.5,0,0,0-1.48-8.3,29.31,29.31,0,0,1-1.61-10,1.3,1.3,0,0,0-1.29-1.27H64.59Z" style="fill:#546e7a"/><path d="M84.2,78H74.59c-2.7,0-4.66-.65-6-2-2.17-2.18-2.15-5.52-2.15-9.07v-.77a21.14,21.14,0,0,0-1.28-7,33.4,33.4,0,0,1-1.81-11.3,1.28,1.28,0,0,1,1.24-1.25h1.29v1.28a30.68,30.68,0,0,0,1.71,10.53A23.6,23.6,0,0,1,69,66.18V67c0,3,0,5.83,1.39,7.25.84.83,2.2,1.24,4.18,1.24H85.49v1.29A1.27,1.27,0,0,1,84.2,78Z" style="fill:#455a64"/><path d="M77.25,77a.77.77,0,0,1-.33-1.47s4.45-2.16,4.45-5.27c0-.69-.17-1.5-1.5-1.5H68a.77.77,0,1,1,0-1.54H79.87a2.82,2.82,0,0,1,3,2.63,2.29,2.29,0,0,1,0,.37c0,4.1-5.11,6.56-5.33,6.67a.75.75,0,0,1-.33.07Zm3.89,12.54s-.55-1-4.41-1c-2.55,0-3.64.42-4.07.67a.76.76,0,0,0-.32.27L72,89.37h-.26l-.93-.08c0-.53.59-2.26,5.92-2.26s5.88,1.73,5.93,2.26l-1.55.12a.24.24,0,0,0,0,.12Z" style="fill:#263238"/><path d="M85.49,90.76c-.15-.61-2-2.18-8.76-2.18S68.12,90.15,68,90.76V90.7l-1.55-.12c0-.59.77-3.55,10.3-3.55S87,90,87,90.58l-1.54.12A.06.06,0,0,0,85.49,90.76Z" style="fill:#546e7a"/><path d="M75.19,78h3.09v9.53H75.19Z" style="fill:#37474f"/><rect x="74.67" y="86" width="4.12" height="3.09" rx="0.77" style="fill:#455a64"/><path d="M76.73,92.19a.78.78,0,0,1-.77-.78v-3.6a.77.77,0,1,1,1.54,0h0v3.6a.76.76,0,0,1-.76.78Z" style="fill:#78909c"/><path d="M76.22,91.41h1a.52.52,0,0,1,.52.52v.77a.51.51,0,0,1-.51.51h-1a.51.51,0,0,1-.51-.51h0v-.77a.51.51,0,0,1,.5-.52Z" style="fill:#263238"/><path d="M66.69,90.38h1a.51.51,0,0,1,.51.51h0v.77a.51.51,0,0,1-.51.51h-1a.52.52,0,0,1-.52-.52V90.9a.51.51,0,0,1,.5-.52Z" style="fill:#263238"/><rect x="70.55" y="89.09" width="2.06" height="1.8" rx="0.51" style="fill:#263238"/><rect x="80.85" y="89.09" width="2.06" height="1.8" rx="0.51" style="fill:#263238"/><path d="M85.74,90.38h1a.51.51,0,0,1,.51.51h0v.77a.52.52,0,0,1-.52.52h-1a.52.52,0,0,1-.52-.52V90.9a.51.51,0,0,1,.5-.52Z" style="fill:#263238"/><path d="M123.85,56.91a2.71,2.71,0,0,0-1.41-2.35l.26-.46a3.25,3.25,0,0,1,1.67,2.81Z" style="fill:#33691e"/><path d="M124.11,56.91h-.51a2.77,2.77,0,0,0-1.18-2.35l.3-.43A3.3,3.3,0,0,1,124.11,56.91Z" style="fill:#33691e"/><path d="M124.11,56.91a3.31,3.31,0,0,1,1.4-2.8l.3.43a2.74,2.74,0,0,0-1.22,2.37Z" style="fill:#33691e"/><path d="M126.3,52.27a5.47,5.47,0,0,1,2.7,1.11c-.7.28-1.18,1.14-2.43,1.3-.84.11-1-.2-1-.2s-.67-.06-.67-1a1.31,1.31,0,0,1,1.43-1.18h0Z" style="fill:#558b2f"/><path d="M126.64,56.11c1.19-.16,1.65-2.45,2.36-2.73-.55-.08-1.43.26-3.45,1.1C125.09,55.73,125.76,56.25,126.64,56.11Z" style="fill:#33691e"/><path d="M122.71,52.49c-1.1-.54-2.8.07-3.23.22.63.38.54,2.44,1.7,2.82.82.26,1.46,0,1.53-1.16a1,1,0,0,0,0-1.88Z" style="fill:#558b2f"/><path d="M121.18,55.53c-1.16-.38-1.07-2.44-1.7-2.82.57,0,1.39.54,3.23,1.66C122.64,55.49,122,55.8,121.18,55.53Zm2.67-2.74h.52v3.86h-.52Z" style="fill:#33691e"/><path d="M124.11,50a3,3,0,0,0-.77,1.9c0,1.18.77,1.18.77,1.18s.77,0,.77-.71S124.11,51.14,124.11,50Z" style="fill:#558b2f"/><path d="M121.28,57.42l.77,3.86h4.12l.77-3.86Z" style="fill:#e64a19"/><path d="M126.94,58.2h-5.66a.26.26,0,0,1-.26-.26h0v-1h6.18v1A.28.28,0,0,1,126.94,58.2Z" style="fill:#bf360c"/><path d="M113.81,56.39h8.24V59h-8.24Z" style="fill:#ffb300"/><path d="M115.1,56.39h.49V59h-.51Zm5.15,0h.51V59h-.51Zm-3.86.77h3.09v1h-3.09Z" style="fill:#ff8f00"/><path d="M113.81,59h8.24v2.31h-8.24Z" style="fill:#2e7d32"/><path d="M115.1,59h.49v2.31h-.51Zm5.15,0h.51v2.31h-.51Zm-3.86.77h3.09v.77h-3.09Z" style="fill:#7cb342"/><path d="M114.84,54.08h7v2.31h-7Z" style="fill:#1565c0"/><path d="M115.59,54.08h.52v2.31h-.52Zm4.9,0H121v2.31h-.51Zm-3.61.77h2.83v.77h-2.83Z" style="fill:#64b5f6"/><path d="M117.67,50.21l.26,2.83h-1a.77.77,0,0,1-.75-.56l-.35-1.29a.78.78,0,0,1,.54-.95.74.74,0,0,1,.21,0Z" style="fill:url(#f)"/><path d="M118.21,53.3H117a1,1,0,0,1-1-.76l-.39-1.28a1,1,0,0,1,.67-1.25h1.61Zm-1.62-2.83h-.14a.51.51,0,0,0-.36.62h0l.35,1.29a.52.52,0,0,0,.5.38h.67l-.21-2.32Z" style="fill:#1b3963"/><path d="M117.42,54.08h3.09a28.89,28.89,0,0,0,.51-4.9.26.26,0,0,0-.26-.26h-3.6a.26.26,0,0,0-.26.26h0A28.79,28.79,0,0,0,117.42,54.08Z" style="fill:#254e8a"/><path d="M127.71,76.8V90.9h-2.32V62.57h2.32Zm-11.07-.13V90.9h-2.31V62.57h2.31Z" style="fill:#4e342e"/><path d="M90.12,61.28h41.2v2.84H90.12Zm13.91,27h27.29V90.9H104Z" style="fill:#6d4c41"/></svg>
