<svg xmlns="http://www.w3.org/2000/svg" width="197" height="160"><path d="M189.05,89.84a89.79,89.79,0,1,0-171.58,37H181.06A89.27,89.27,0,0,0,189.05,89.84Z" style="fill:#e2e8f0;fill-rule:evenodd"/><path d="M10.6,126.85H185.69M.5,126.85H6.11m184.07,0h5.61" style="fill:none;stroke:#003b6a;stroke-linecap:round;stroke-linejoin:round"/><ellipse cx="42.25" cy="156.15" rx="11.22" ry="3.37" style="fill:#e2e8f0"/><path d="M37,94.33A4,4,0,0,0,37,100l0,0,2.36,2.38a4,4,0,0,1,0,5.66l0,0L37,110.49a4,4,0,0,0,0,5.66l0,0M47.24,94.33a4,4,0,0,0,0,5.66l0,0,2.35,2.38a4,4,0,0,1,0,5.66l0,0-2.35,2.38a4,4,0,0,0,0,5.66l0,0" style="fill:none;stroke:#003b6a;stroke-linecap:round;stroke-linejoin:round"/><path d="M29.38,149.75a10.78,10.78,0,0,1,0-21.55v5.39a5.39,5.39,0,0,0,0,10.77Z" style="fill:#4addff;stroke:#003b6a;stroke-linejoin:round;fill-rule:evenodd"/><rect x="29.41" y="121.47" width="26.6" height="33.67" rx="1.2" style="fill:#fff;stroke:#003b6a;stroke-linejoin:round"/><path d="M76.82,44.94V39.33a22.45,22.45,0,0,1,44.89,0v5.61a4.5,4.5,0,0,1,0,9h-.26a22.45,22.45,0,0,1-44.36,0h-.27a4.5,4.5,0,0,1,0-9Z" style="fill:#fff;stroke:#4550e5;stroke-linecap:round;stroke-linejoin:round;fill-rule:evenodd"/><path d="M76.82,44.94V39.33a22.45,22.45,0,0,1,44.89,0v5.61a4.5,4.5,0,0,1,0,9h-.26a22.45,22.45,0,0,1-44.36,0h-.27a4.5,4.5,0,0,1,0-9Z" style="fill:none;stroke:#003b6a;stroke-linecap:round;stroke-linejoin:round"/><circle cx="112.17" cy="54.47" r="2.81" style="fill:#dae1e9"/><circle cx="86.36" cy="54.47" r="2.81" style="fill:#dae1e9"/><path d="M106,60.16a9.78,9.78,0,0,1-13.46,0" style="fill:none;stroke:#4550e5;stroke-linecap:round;stroke-linejoin:round"/><path d="M86.92,47.19a3.66,3.66,0,0,1,6.74,0m11.22,0a3.65,3.65,0,0,1,6.73,0" style="fill:none;stroke:#003b6a;stroke-linecap:round;stroke-linejoin:round"/><path d="M120.82,107.57v-1.35m-43.1,8.51v-8.51m43.1,8.51v-8.51" style="fill:none;stroke:#4550e5;stroke-linecap:round;stroke-linejoin:round"/><path d="M120.82,114.73H132a2.24,2.24,0,0,0,2.24-2.24h0v-2.7a35,35,0,1,0-70,0h0v2.7a2.24,2.24,0,0,0,2.24,2.24h11.2v12.12h43.1Z" style="fill:#004f7f;fill-rule:evenodd"/><path d="M99.27,74.78v52.07" style="fill:none;stroke:#003b6a;stroke-linejoin:round"/><path d="M77.72,114.73v-8.51m43.1,8.51v-8.51m0,8.51H132a2.24,2.24,0,0,0,2.24-2.24h0v-2.7a35,35,0,1,0-70,0h0v2.7a2.24,2.24,0,0,0,2.24,2.24h11.2v12.12h43.1Z" style="fill:none;stroke:#003b6a;stroke-linecap:round;stroke-linejoin:round"/><circle cx="123.13" cy="89.15" r="1.35" style="fill:#fff;isolation:isolate;opacity:0.6000000238418579"/><circle cx="116.39" cy="95.88" r="1.35" style="fill:#fff;isolation:isolate;opacity:0.6000000238418579"/><circle cx="123.13" cy="102.61" r="1.35" style="fill:#fff;isolation:isolate;opacity:0.6000000238418579"/><circle cx="116.39" cy="109.35" r="1.35" style="fill:#fff;isolation:isolate;opacity:0.6000000238418579"/><circle cx="116.39" cy="122.82" r="1.35" style="fill:#fff;isolation:isolate;opacity:0.6000000238418579"/><circle cx="109.66" cy="102.61" r="1.35" style="fill:#fff;isolation:isolate;opacity:0.6000000238418579"/><circle cx="102.92" cy="109.35" r="1.35" style="fill:#fff;isolation:isolate;opacity:0.6000000238418579"/><circle cx="109.66" cy="116.08" r="1.35" style="fill:#fff;isolation:isolate;opacity:0.6000000238418579"/><circle cx="102.92" cy="122.82" r="1.35" style="fill:#fff;isolation:isolate;opacity:0.6000000238418579"/><circle cx="89.46" cy="109.35" r="1.35" style="fill:#fff;isolation:isolate;opacity:0.6000000238418579"/><circle cx="96.19" cy="116.08" r="1.35" style="fill:#fff;isolation:isolate;opacity:0.6000000238418579"/><circle cx="89.46" cy="122.82" r="1.35" style="fill:#fff;isolation:isolate;opacity:0.6000000238418579"/><circle cx="75.99" cy="95.88" r="1.35" style="fill:#fff;isolation:isolate;opacity:0.6000000238418579"/><circle cx="82.72" cy="102.61" r="1.35" style="fill:#fff;isolation:isolate;opacity:0.6000000238418579"/><circle cx="82.72" cy="116.08" r="1.35" style="fill:#fff;isolation:isolate;opacity:0.6000000238418579"/><circle cx="69.25" cy="102.61" r="1.35" style="fill:#fff;isolation:isolate;opacity:0.6000000238418579"/><path d="M106.16,144.36a5.39,5.39,0,0,0-5.39-5.39H91.19c-7,0-13.47-2.44-13.47-20.2v-4H66.94v4c0,25.61,13.18,31,24.25,31h9.58a5.36,5.36,0,0,0,5.39-5.33v-.08ZM154.67,139h-9.61c-7,0-13.47-2.44-13.47-20.2v-4H120.82v4c0,25.61,13.17,31,24.24,31h9.61a5.39,5.39,0,1,0,0-10.78Z" style="fill:#fff;stroke:#003b6a;stroke-linejoin:round;fill-rule:evenodd"/><path d="M82.88,30.56c6.74,1.34,21.35,4.64,35.92-1.35C131.38,1.31,73.27.3,66.72,28.05a2.24,2.24,0,0,0,.38,1.84,2.28,2.28,0,0,0,1.69.92c8.28.45,8.66,21.35,7.22,30.73-4.49,29.17,15.42,30.74,23.28,46.51,8.19-16.39,29.54-17.31,22.45-50.42a11.19,11.19,0,0,1,0-4.08c1.48-9.12,4.24-24.27-3-24.27l-1.33.54c.38,4.49,5.79,41.12-18.34,42.65S79.07,30.56,82.88,30.56Z" style="fill:#002b55;fill-rule:evenodd"/><path d="M82.88,30.56c6.74,1.34,21.35,4.64,35.92-1.35C131.38,1.31,73.27.3,66.72,28.05a2.24,2.24,0,0,0,.38,1.84,2.28,2.28,0,0,0,1.69.92c8.28.45,8.66,21.35,7.22,30.73-4.49,29.17,15.42,30.74,23.28,46.51,8.19-16.39,29.54-17.31,22.45-50.42a11.19,11.19,0,0,1,0-4.08c1.48-9.12,4.24-24.27-3-24.27l-1.33.54c.38,4.49,5.79,41.12-18.34,42.65S79.07,30.56,82.88,30.56Z" style="fill:none;stroke:#003b6a;stroke-linecap:round;stroke-linejoin:round"/><path d="M130.78,60.05a1.48,1.48,0,0,0-1.55,1.41,1.53,1.53,0,0,0,.34,1,2.83,2.83,0,0,1-1.86,4.83c-7.12,1.25-22.83-12.08-28.67-8.42-5.83-3.7-21.61,9.63-28.66,8.38a2.83,2.83,0,0,1-1.86-4.83,1.49,1.49,0,0,0-.27-2.08,1.54,1.54,0,0,0-1-.3c-6,.31-6.17,14.29,8.62,13.64C85.78,73.27,94.67,69.2,99,62.92c4.49,6.24,13.27,10.35,23.12,10.77C137,74.3,136.78,60.32,130.78,60.05Z" style="fill:#0056b4;stroke:#2f495e;stroke-linecap:round;stroke-linejoin:round;fill-rule:evenodd"/><ellipse cx="130.35" cy="154.04" rx="43.3" ry="3.37" style="fill:#e2e8f0"/><path d="M119.63,145h-6.11l13-40.41a2.77,2.77,0,0,1,2.61-1.91h4.13Z" style="fill:#dae1e9;stroke:#003b6a;stroke-linejoin:round;fill-rule:evenodd"/><path d="M172.89,145H119.63l13.67-42.36h49.38a2.79,2.79,0,0,1,2.24,1.12,2.72,2.72,0,0,1,.39,2.45Z" style="fill:#dae1e9;fill-rule:evenodd"/><path d="M172.89,145h-56v6.73h50.53a5.46,5.46,0,0,0,5.45-5.47h0Z" style="fill:#dae1e9;stroke:#003b6a;stroke-linejoin:round;fill-rule:evenodd"/><path d="M116.91,145H92.22a1.34,1.34,0,0,0-1,.38,1.4,1.4,0,0,0-.4,1,5.46,5.46,0,0,0,5.44,5.48H116.9Z" style="fill:#dae1e9;stroke:#003b6a;stroke-linejoin:round;fill-rule:evenodd"/><path d="M172.89,145H119.63l13.67-42.36h49.38a2.79,2.79,0,0,1,2.24,1.12,2.72,2.72,0,0,1,.39,2.45Z" style="fill:none;stroke:#003b6a;stroke-linejoin:round"/></svg>
