<svg xmlns="http://www.w3.org/2000/svg" width="197" height="160"><path d="M189.67,89.79a89.79,89.79,0,1,0-171.58,37H181.68A89.25,89.25,0,0,0,189.67,89.79Z" transform="translate(-0.62 -0.01)" style="fill:#e2e8f0;fill-rule:evenodd"/><path d="M11.22,126.8H186.31m-185.19,0H6.73m184.07,0h5.61" transform="translate(-0.62 -0.01)" style="fill:none;stroke:#2f495e;stroke-linecap:round;stroke-linejoin:round"/><ellipse cx="42.25" cy="156.09" rx="11.22" ry="3.37" style="fill:#e2e8f0"/><path d="M37.64,94.28a4,4,0,0,0,0,5.7L40,102.36a4,4,0,0,1,0,5.7l-2.36,2.38a4,4,0,0,0,0,5.7M47.86,94.28a4,4,0,0,0,0,5.7l2.35,2.38a4,4,0,0,1,0,5.7l-2.35,2.38a4,4,0,0,0,0,5.7" transform="translate(-0.62 -0.01)" style="fill:none;stroke:#2f495e;stroke-linecap:round;stroke-linejoin:round"/><path d="M30,149.7a10.78,10.78,0,0,1,0-21.55v5.39a5.39,5.39,0,0,0,0,10.77Z" transform="translate(-0.62 -0.01)" style="fill:#00c58e;stroke:#2f495e;stroke-linejoin:round;fill-rule:evenodd"/><rect x="29.41" y="121.41" width="26.6" height="33.67" rx="1.2" style="fill:#fff;stroke:#2f495e;stroke-linejoin:round"/><path d="M77.44,44.89V39.28a22.45,22.45,0,0,1,44.89,0v5.61a4.49,4.49,0,0,1,0,9h-.26a22.45,22.45,0,0,1-44.36,0h-.27a4.49,4.49,0,1,1,0-9Z" transform="translate(-0.62 -0.01)" style="fill:#fff;stroke:#4550e5;stroke-linecap:round;stroke-linejoin:round;fill-rule:evenodd"/><path d="M77.44,44.89V39.28a22.45,22.45,0,0,1,44.89,0v5.61a4.49,4.49,0,0,1,0,9h-.26a22.45,22.45,0,0,1-44.36,0h-.27a4.49,4.49,0,1,1,0-9Z" transform="translate(-0.62 -0.01)" style="fill:none;stroke:#2f495e;stroke-linecap:round;stroke-linejoin:round"/><circle cx="112.17" cy="54.41" r="2.81" style="fill:#dae1e9"/><circle cx="86.36" cy="54.41" r="2.81" style="fill:#dae1e9"/><path d="M106.64,60.11a9.78,9.78,0,0,1-13.46,0" transform="translate(-0.62 -0.01)" style="fill:none;stroke:#4550e5;stroke-linecap:round;stroke-linejoin:round"/><path d="M87.54,47.14a3.66,3.66,0,0,1,6.74,0m11.22,0a3.65,3.65,0,0,1,6.73,0" transform="translate(-0.62 -0.01)" style="fill:none;stroke:#2f495e;stroke-linecap:round;stroke-linejoin:round"/><path d="M121.44,107.52v-1.35m-43.1,8.51v-8.51m43.1,8.51v-8.51" transform="translate(-0.62 -0.01)" style="fill:none;stroke:#4550e5;stroke-linecap:round;stroke-linejoin:round"/><path d="M121.44,114.68h11.22a2.24,2.24,0,0,0,2.24-2.24v-2.7a35,35,0,0,0-70,0v2.7a2.24,2.24,0,0,0,2.25,2.24H78.34V126.8h43.1V114.68Z" transform="translate(-0.62 -0.01)" style="fill:#108775;fill-rule:evenodd"/><path d="M99.89,74.73V126.8" transform="translate(-0.62 -0.01)" style="fill:none;stroke:#2f495e;stroke-linejoin:round"/><path d="M78.34,114.68v-8.51m43.1,8.51v-8.51m0,8.51h11.22a2.24,2.24,0,0,0,2.24-2.24v-2.7a35,35,0,0,0-70,0v2.7a2.24,2.24,0,0,0,2.25,2.24H78.34V126.8h43.1V114.68Z" transform="translate(-0.62 -0.01)" style="fill:none;stroke:#2f495e;stroke-linecap:round;stroke-linejoin:round"/><circle cx="123.13" cy="89.09" r="1.35" style="fill:#fff;isolation:isolate;opacity:0.6000000238418579"/><circle cx="116.39" cy="95.82" r="1.35" style="fill:#fff;isolation:isolate;opacity:0.6000000238418579"/><circle cx="123.13" cy="102.55" r="1.35" style="fill:#fff;isolation:isolate;opacity:0.6000000238418579"/><circle cx="116.39" cy="109.29" r="1.35" style="fill:#fff;isolation:isolate;opacity:0.6000000238418579"/><circle cx="116.39" cy="122.76" r="1.35" style="fill:#fff;isolation:isolate;opacity:0.6000000238418579"/><circle cx="109.66" cy="102.55" r="1.35" style="fill:#fff;isolation:isolate;opacity:0.6000000238418579"/><circle cx="102.92" cy="109.29" r="1.35" style="fill:#fff;isolation:isolate;opacity:0.6000000238418579"/><circle cx="109.66" cy="116.02" r="1.35" style="fill:#fff;isolation:isolate;opacity:0.6000000238418579"/><circle cx="102.92" cy="122.76" r="1.35" style="fill:#fff;isolation:isolate;opacity:0.6000000238418579"/><circle cx="89.46" cy="109.29" r="1.35" style="fill:#fff;isolation:isolate;opacity:0.6000000238418579"/><circle cx="96.19" cy="116.02" r="1.35" style="fill:#fff;isolation:isolate;opacity:0.6000000238418579"/><circle cx="89.46" cy="122.76" r="1.35" style="fill:#fff;isolation:isolate;opacity:0.6000000238418579"/><circle cx="75.99" cy="95.82" r="1.35" style="fill:#fff;isolation:isolate;opacity:0.6000000238418579"/><circle cx="82.72" cy="102.55" r="1.35" style="fill:#fff;isolation:isolate;opacity:0.6000000238418579"/><circle cx="82.72" cy="116.02" r="1.35" style="fill:#fff;isolation:isolate;opacity:0.6000000238418579"/><circle cx="69.25" cy="102.55" r="1.35" style="fill:#fff;isolation:isolate;opacity:0.6000000238418579"/><path d="M106.78,144.31a5.39,5.39,0,0,0-5.39-5.39H91.81c-7,0-13.47-2.44-13.47-20.2v-4H67.56v4c0,25.61,13.18,31,24.25,31h9.58a5.36,5.36,0,0,0,5.39-5.39Zm48.51-5.39h-9.61c-7,0-13.47-2.44-13.47-20.2v-4H121.44v4c0,25.61,13.17,31,24.24,31h9.61a5.39,5.39,0,0,0,0-10.78Z" transform="translate(-0.62 -0.01)" style="fill:#fff;stroke:#2f495e;stroke-linejoin:round;fill-rule:evenodd"/><path d="M83.5,30.51c6.74,1.34,21.35,4.64,35.92-1.35C132,1.26,73.89.25,67.34,28a2.24,2.24,0,0,0,.38,1.84,2.26,2.26,0,0,0,1.69.92c8.28.45,8.66,21.35,7.22,30.73C72.14,90.66,92.05,92.23,99.91,108c8.19-16.39,29.54-17.31,22.45-50.42a11.19,11.19,0,0,1,0-4.08c1.48-9.12,4.24-24.27-3-24.27l-1.33.54c.38,4.49,5.79,41.12-18.34,42.65S79.69,30.51,83.5,30.51Z" transform="translate(-0.62 -0.01)" style="fill:#2f495e;fill-rule:evenodd"/><path d="M83.5,30.51c6.74,1.34,21.35,4.64,35.92-1.35C132,1.26,73.89.25,67.34,28a2.24,2.24,0,0,0,.38,1.84,2.26,2.26,0,0,0,1.69.92c8.28.45,8.66,21.35,7.22,30.73C72.14,90.66,92.05,92.23,99.91,108c8.19-16.39,29.54-17.31,22.45-50.42a11.19,11.19,0,0,1,0-4.08c1.48-9.12,4.24-24.27-3-24.27l-1.33.54c.38,4.49,5.79,41.12-18.34,42.65S79.69,30.51,83.5,30.51Z" transform="translate(-0.62 -0.01)" style="fill:none;stroke:#2f495e;stroke-linecap:round;stroke-linejoin:round"/><path d="M131.4,60a1.48,1.48,0,0,0-1.21,2.42,2.83,2.83,0,0,1-1.86,4.83c-7.12,1.25-22.83-12.08-28.67-8.42C93.83,55.13,78.05,68.46,71,67.21a2.83,2.83,0,0,1-1.86-4.83A1.48,1.48,0,0,0,67.92,60c-6,.31-6.17,14.29,8.62,13.64,9.86-.42,18.75-4.49,23.12-10.77,4.49,6.24,13.27,10.35,23.12,10.77C137.58,74.25,137.4,60.27,131.4,60Z" transform="translate(-0.62 -0.01)" style="fill:#00c58e;stroke:#2f495e;stroke-linecap:round;stroke-linejoin:round;fill-rule:evenodd"/><ellipse cx="130.35" cy="153.98" rx="43.3" ry="3.37" style="fill:#e2e8f0"/><path d="M120.25,144.92h-6.11l13-40.41a2.76,2.76,0,0,1,2.61-1.91h4.13Z" transform="translate(-0.62 -0.01)" style="fill:#dae1e9;stroke:#2f495e;stroke-linejoin:round;fill-rule:evenodd"/><path d="M173.51,144.92H120.25l13.67-42.36H183.3a2.78,2.78,0,0,1,2.24,1.12,2.72,2.72,0,0,1,.39,2.45Z" transform="translate(-0.62 -0.01)" style="fill:#dae1e9;fill-rule:evenodd"/><path d="M173.51,144.92h-56v6.73h50.53a5.46,5.46,0,0,0,5.45-5.48Z" transform="translate(-0.62 -0.01)" style="fill:#dae1e9;stroke:#2f495e;stroke-linejoin:round;fill-rule:evenodd"/><path d="M117.53,144.92H92.84a1.35,1.35,0,0,0-1,.38,1.39,1.39,0,0,0-.4,1,5.46,5.46,0,0,0,5.45,5.48h20.63Z" transform="translate(-0.62 -0.01)" style="fill:#dae1e9;stroke:#2f495e;stroke-linejoin:round;fill-rule:evenodd"/><path d="M173.51,144.92H120.25l13.67-42.36H183.3a2.78,2.78,0,0,1,2.24,1.12,2.72,2.72,0,0,1,.39,2.45Z" transform="translate(-0.62 -0.01)" style="fill:none;stroke:#2f495e;stroke-linejoin:round"/><path d="M156.33,127.58l0,0a1.18,1.18,0,0,1-1.08.57h-5a1.17,1.17,0,0,1-1.07-.56.47.47,0,0,0,0-.1,1.15,1.15,0,0,1-.07-.63,1.54,1.54,0,0,1,.17-.48l2.7-4.73.84-1.47.43.75.42.72,2.69,4.72a1.4,1.4,0,0,1,.18.48,1,1,0,0,1,0,.55.81.81,0,0,1-.06.13v0Z" transform="translate(-0.62 -0.01)" style="fill:#00c58e;stroke:#2f495e"/><text transform="translate(32.2 141.15)" style="font-size:12px;fill:#108775;font-family:CCWildWordsRoman, CC Wild Words">E.A.</text></svg>
