<svg xmlns="http://www.w3.org/2000/svg" viewBox="0 0 196.29 159.46"><defs><style>.cls-1,.cls-3{fill:#e2e8f0;}.cls-1,.cls-12,.cls-13,.cls-14,.cls-15,.cls-16,.cls-4,.cls-6,.cls-9{fill-rule:evenodd;}.cls-10,.cls-2,.cls-8{fill:none;}.cls-10,.cls-12,.cls-14,.cls-15,.cls-17,.cls-2,.cls-4,.cls-5{stroke:#2f495e;}.cls-14,.cls-2,.cls-6,.cls-8{stroke-linecap:round;}.cls-10,.cls-12,.cls-14,.cls-15,.cls-2,.cls-4,.cls-5,.cls-6,.cls-8{stroke-linejoin:round;}.cls-14,.cls-17,.cls-4{fill:#00c58e;}.cls-11,.cls-12,.cls-5,.cls-6{fill:#fff;}.cls-6,.cls-8{stroke:#4550e5;}.cls-15,.cls-16,.cls-7{fill:#dae1e9;}.cls-18,.cls-9{fill:#108775;}.cls-11{isolation:isolate;opacity:0.6;}.cls-13{fill:#2f495e;}</style></defs><g id="Layer_2" data-name="Layer 2"><g id="Layer_1-2" data-name="Layer 1"><path class="cls-1" d="M189.05,89.78a89.79,89.79,0,1,0-171.58,37H181.06A89.42,89.42,0,0,0,189.05,89.78Z"/><path class="cls-2" d="M10.6,126.8H185.69M.5,126.8H6.11m184.06,0h5.62"/><ellipse class="cls-3" cx="42.25" cy="156.09" rx="11.22" ry="3.37"/><path class="cls-2" d="M37,94.27a4,4,0,0,0,0,5.7l2.36,2.38a4,4,0,0,1,0,5.7L37,110.43a4,4,0,0,0,0,5.7M47.23,94.27a4,4,0,0,0,0,5.7l2.36,2.38a4,4,0,0,1,0,5.7l-2.36,2.38a4,4,0,0,0,0,5.7"/><path class="cls-4" d="M29.41,149.69a10.78,10.78,0,0,1,0-21.55v5.39a5.39,5.39,0,1,0,0,10.77Z"/><rect class="cls-5" x="29.41" y="121.41" width="26.6" height="33.67" rx="1.2"/><path class="cls-6" d="M76.82,44.89V39.28a22.45,22.45,0,1,1,44.89,0v5.61a4.49,4.49,0,1,1,0,9h-.27a22.44,22.44,0,0,1-44.35,0h-.27a4.49,4.49,0,1,1,0-9Z"/><path class="cls-2" d="M76.82,44.89V39.28a22.45,22.45,0,1,1,44.89,0v5.61a4.49,4.49,0,1,1,0,9h-.27a22.44,22.44,0,0,1-44.35,0h-.27a4.49,4.49,0,1,1,0-9Z"/><circle class="cls-7" cx="112.17" cy="54.41" r="2.81"/><circle class="cls-7" cx="86.36" cy="54.41" r="2.81"/><path class="cls-8" d="M106,60.11a9.79,9.79,0,0,1-13.47,0"/><path class="cls-2" d="M86.92,47.13a3.66,3.66,0,0,1,6.73,0m11.23,0a3.66,3.66,0,0,1,6.73,0"/><path class="cls-8" d="M120.81,107.51v-1.34m-43.09,8.5v-8.5m43.09,8.5v-8.5"/><path class="cls-9" d="M120.81,114.67H132a2.24,2.24,0,0,0,2.24-2.24v-2.69a35,35,0,1,0-70,0v2.69a2.24,2.24,0,0,0,2.24,2.24H77.72V126.8h43.09V114.67Z"/><path class="cls-10" d="M99.27,74.72V126.8"/><path class="cls-2" d="M77.72,114.67v-8.5m43.09,8.5v-8.5m0,8.5H132a2.24,2.24,0,0,0,2.24-2.24v-2.69a35,35,0,1,0-70,0v2.69a2.24,2.24,0,0,0,2.24,2.24H77.72V126.8h43.09V114.67Z"/><circle class="cls-11" cx="123.13" cy="89.09" r="1.35"/><circle class="cls-11" cx="116.39" cy="95.82" r="1.35"/><circle class="cls-11" cx="123.13" cy="102.55" r="1.35"/><circle class="cls-11" cx="116.39" cy="109.29" r="1.35"/><circle class="cls-11" cx="116.39" cy="122.76" r="1.35"/><circle class="cls-11" cx="109.66" cy="102.55" r="1.35"/><circle class="cls-11" cx="102.92" cy="109.29" r="1.35"/><circle class="cls-11" cx="109.66" cy="116.02" r="1.35"/><circle class="cls-11" cx="102.92" cy="122.76" r="1.35"/><circle class="cls-11" cx="89.46" cy="109.29" r="1.35"/><circle class="cls-11" cx="96.19" cy="116.02" r="1.35"/><circle class="cls-11" cx="89.46" cy="122.76" r="1.35"/><circle class="cls-11" cx="75.99" cy="95.82" r="1.35"/><circle class="cls-11" cx="82.72" cy="102.55" r="1.35"/><circle class="cls-11" cx="82.72" cy="116.02" r="1.35"/><circle class="cls-11" cx="69.25" cy="102.55" r="1.35"/><path class="cls-12" d="M106.16,144.3a5.39,5.39,0,0,0-5.39-5.38H91.18c-7,0-13.46-2.45-13.46-20.2v-4H66.94v4c0,25.61,13.18,31,24.24,31h9.59a5.36,5.36,0,0,0,5.39-5.39Zm48.5-5.38h-9.6c-7,0-13.47-2.45-13.47-20.2v-4H120.81v4c0,25.61,13.18,31,24.25,31h9.6a5.39,5.39,0,1,0,0-10.77Z"/><path class="cls-13" d="M82.88,30.5c6.73,1.35,21.35,4.65,35.91-1.35C131.34,1.25,73.27.24,66.72,28a2.26,2.26,0,0,0,2.06,2.76c8.29.45,8.67,21.34,7.23,30.73-4.49,29.18,15.42,30.75,23.28,46.46,8.19-16.39,29.54-17.31,22.44-50.41a11.71,11.71,0,0,1,0-4.09c1.49-9.11,4.25-24.26-3-24.26l-1.32.53c.38,4.49,5.79,41.13-18.34,42.65S79.06,30.5,82.88,30.5Z"/><path class="cls-2" d="M82.88,30.5c6.73,1.35,21.35,4.65,35.91-1.35C131.34,1.25,73.27.24,66.72,28a2.26,2.26,0,0,0,2.06,2.76c8.29.45,8.67,21.34,7.23,30.73-4.49,29.18,15.42,30.75,23.28,46.46,8.19-16.39,29.54-17.31,22.44-50.41a11.71,11.71,0,0,1,0-4.09c1.49-9.11,4.25-24.26-3-24.26l-1.32.53c.38,4.49,5.79,41.13-18.34,42.65S79.06,30.5,82.88,30.5Z"/><path class="cls-14" d="M130.78,60a1.48,1.48,0,0,0-1.4.82,1.46,1.46,0,0,0,.19,1.6,2.83,2.83,0,0,1-1.86,4.83c-7.12,1.26-22.83-12.08-28.67-8.42-5.84-3.66-21.62,9.68-28.62,8.42a2.81,2.81,0,0,1-2.5-1.81,2.84,2.84,0,0,1,.64-3A1.48,1.48,0,0,0,67.3,60c-6,.31-6.17,14.3,8.62,13.65,9.85-.43,18.74-4.49,23.12-10.78,4.49,6.24,13.27,10.35,23.12,10.78C137,74.25,136.77,60.26,130.78,60Z"/><ellipse class="cls-3" cx="130.35" cy="153.98" rx="43.3" ry="3.37"/><path class="cls-15" d="M119.62,144.91h-6.1l13-40.4a2.72,2.72,0,0,1,2.6-1.91h4.13Z"/><path class="cls-16" d="M172.89,144.91H119.62l13.67-42.36h49.39a2.8,2.8,0,0,1,2.24,1.13,2.66,2.66,0,0,1,.38,2.44Z"/><path class="cls-15" d="M172.89,144.91h-56v6.73h50.53a5.45,5.45,0,0,0,5.45-5.47Z"/><path class="cls-15" d="M116.91,144.91H92.22a1.35,1.35,0,0,0-1.37,1.35,5.45,5.45,0,0,0,5.45,5.47h20.63Z"/><path class="cls-10" d="M172.89,144.91H119.62l13.67-42.36h49.39a2.8,2.8,0,0,1,2.24,1.13,2.66,2.66,0,0,1,.38,2.44Z"/><path class="cls-17" d="M155.71,127.57l0,0a1.16,1.16,0,0,1-1.08.57h-5a1.16,1.16,0,0,1-1.07-.56.47.47,0,0,1,0-.1,1.11,1.11,0,0,1-.07-.62,1.48,1.48,0,0,1,.16-.49l2.7-4.72.85-1.48.43.76.41.72,2.7,4.71a1.37,1.37,0,0,1,.18.49,1,1,0,0,1,0,.55.48.48,0,0,1-.05.12v0Z"/><path class="cls-18" d="M39.24,139.27a1.28,1.28,0,0,1-.85.72,10.58,10.58,0,0,0-1.1.42c-.32.15-.63.3-.91.45l-1.15.65c-.49.29-1,.56-1.46.82a.81.81,0,0,1-.39.1.78.78,0,0,1-.58-.24.94.94,0,0,1-.24-.7c0-.16,0-.38,0-.66s0-.59.09-.94.06-.67.07-.95,0-.53,0-.76a25.54,25.54,0,0,1,.16-3.36.56.56,0,0,1-.18-.47,1.1,1.1,0,0,1,.15-.54,1.08,1.08,0,0,1,.45-.45l1.44-.47c.3-.08.59-.16.87-.21l1.24-.2a3.16,3.16,0,0,1,.61-.09c.39,0,.58.17.58.51a2.05,2.05,0,0,1-.07.41c-.06.19-.14.29-.23.29l-.11,0h-.16a.85.85,0,0,0-.24,0c-.69.18-1.21.33-1.57.46s-.84.33-1.45.61a2.48,2.48,0,0,0-.19,1.06c0,.22,0,.42,0,.59.26-.08.56-.18.9-.31l1.14-.42a11.32,11.32,0,0,1,1.18-.38,6,6,0,0,1,1-.2.26.26,0,0,1,.27.28,1,1,0,0,1,0,.15c0,.07,0,.13,0,.16a.81.81,0,0,1-.42.72c-.23.11-.61.26-1.12.46l-1.2.49a9.71,9.71,0,0,0-.93.45,4.67,4.67,0,0,0-.87.57,3.07,3.07,0,0,0-.14.81,10.41,10.41,0,0,0,0,1.07,19.32,19.32,0,0,0,2.16-.74l.75-.31c.37-.16.7-.3,1-.4s.6-.21.92-.3a1,1,0,0,1,.3,0q.36,0,.36.39A1.46,1.46,0,0,1,39.24,139.27Z"/><path class="cls-18" d="M42.51,140.56a2.18,2.18,0,0,1-.48.81,1,1,0,0,1-.71.34.8.8,0,0,1-.53-.17.6.6,0,0,1-.2-.48,1.67,1.67,0,0,1,.07-.42c.18-.54.35-.8.53-.8a.26.26,0,0,0,.16-.09l.21-.18a.3.3,0,0,1,.16-.08,1,1,0,0,1,.62.18.6.6,0,0,1,.24.51A1.06,1.06,0,0,1,42.51,140.56Z"/><path class="cls-18" d="M50.88,141.59c-.15.45-.38.67-.69.67a.66.66,0,0,1-.55-.36,1,1,0,0,1-.19-.49c0-.22-.05-.5-.08-.87a4.53,4.53,0,0,0-.17-.94,21.47,21.47,0,0,0-2.15.26,5.73,5.73,0,0,0-1.71.54,2,2,0,0,0-.43.87,1,1,0,0,0,0,.13v.26a.73.73,0,0,1-.67.32.8.8,0,0,1-.53-.17.59.59,0,0,1-.22-.5,1.08,1.08,0,0,1,.08-.38c.13-.35.25-.65.37-.9l.64-1.34c.31-.63.55-1.15.72-1.54.28-.66.49-1.13.61-1.41s.26-.55.39-.8a7.17,7.17,0,0,1,.46-.75q.25-.36.78-1.05l.2-.28a.72.72,0,0,1,.25-.24.67.67,0,0,1,.39-.1,1.25,1.25,0,0,1,.24,0,.69.69,0,0,1,.45.23.81.81,0,0,1,.15.37c0,.14,0,.3.05.47q.22,1,.39,1.89c.12.6.25,1.31.4,2.13l.39,2C50.57,140.19,50.71,140.83,50.88,141.59ZM49,138.07c0-.2-.12-.56-.21-1.06s-.16-.93-.24-1.26a4,4,0,0,0-.31-.85.92.92,0,0,0-.39.36,7.9,7.9,0,0,0-.48.8c-.2.35-.34.59-.43.72s-.31.45-.4.6a2.87,2.87,0,0,0-.2.35,3,3,0,0,0-.13.3c0,.12-.11.29-.19.5l1.52-.3a5.79,5.79,0,0,1,.86-.11A5.93,5.93,0,0,0,49,138.07Z"/><path class="cls-18" d="M53.66,140.56a2.18,2.18,0,0,1-.48.81,1,1,0,0,1-.71.34.8.8,0,0,1-.53-.17.57.57,0,0,1-.2-.48,1.32,1.32,0,0,1,.07-.42c.18-.54.35-.8.53-.8a.29.29,0,0,0,.16-.09l.2-.18a.36.36,0,0,1,.17-.08,1,1,0,0,1,.62.18.6.6,0,0,1,.24.51A1.06,1.06,0,0,1,53.66,140.56Z"/></g></g></svg>