<svg xmlns="http://www.w3.org/2000/svg" width="210" height="160"><path d="M201.1,95.52a95.52,95.52,0,1,0-182.55,39.4h174A94.8,94.8,0,0,0,201.1,95.52Z" style="fill:#e2e8f0;fill-rule:evenodd"/><path d="M11.25,134.92H197.51m-197,0h6m195.82,0h6" style="fill:none;stroke:#2f498a;stroke-linecap:round;stroke-linejoin:round"/><ellipse cx="165.63" cy="155.65" rx="32.31" ry="3.87" style="fill:#e2e8f0"/><ellipse cx="62.23" cy="155.65" rx="32.31" ry="3.87" style="fill:#e2e8f0"/><path d="M31.21,70.32H141.06v60.16a4.46,4.46,0,0,1-4.46,4.46H35.68a4.46,4.46,0,0,1-4.47-4.46Z" style="fill:#fff;stroke:#2f498a;stroke-linecap:round;stroke-linejoin:round;fill-rule:evenodd"/><path d="M36.2,54.92h99.89a5,5,0,0,1,5,4.78V70.23H31.23V59.7A5,5,0,0,1,36.2,54.92Z" style="fill:#fff;stroke:#2f498a;stroke-miterlimit:10;fill-rule:evenodd"/><path d="M36.2,54.92h99.89a5,5,0,0,1,5,4.78V70.23H31.23V59.7A5,5,0,0,1,36.2,54.92Z" style="fill:#0c2442;stroke:#2f498a;stroke-linecap:round;stroke-linejoin:round;fill-rule:evenodd"/><circle cx="38.95" cy="62.56" r="2.58" style="fill:#00a4e9;stroke:#00a4e9;stroke-linecap:round;stroke-linejoin:round"/><circle cx="49.29" cy="62.56" r="2.58" style="fill:#fff;stroke:#fff;stroke-linecap:round;stroke-linejoin:round"/><circle cx="59.63" cy="62.56" r="2.58" style="fill:#0057df;stroke:#0057df;stroke-linecap:round;stroke-linejoin:round"/><path d="M43.11,125.23,66.87,149a.5.5,0,0,1,0,.71l-3,3a.51.51,0,0,1-.71,0L39.45,128.9a.5.5,0,0,1,0-.71l3-3A.5.5,0,0,1,43.11,125.23Zm25.16,0L92,149a.51.51,0,0,1,0,.71l-3,2.95a.5.5,0,0,1-.71,0L64.6,128.9a.5.5,0,0,1,0-.7l3-3A.5.5,0,0,1,68.27,125.24Z" style="fill:#dae1e9;stroke:#2f498a;stroke-linejoin:round;fill-rule:evenodd"/><path d="M66.88,128.86,43.12,152.62a.5.5,0,0,1-.71,0l-2.95-3a.5.5,0,0,1,0-.71L63.22,125.2a.48.48,0,0,1,.7,0l3,3A.48.48,0,0,1,66.88,128.86Z" style="fill:#dae1e9;stroke:#2f498a;stroke-linejoin:round;fill-rule:evenodd"/><rect x="63.52" y="116.87" width="5.18" height="36.2" rx="0.35" style="fill:#dae1e9;stroke:#2f498a;stroke-linejoin:round"/><rect x="37.66" y="116.87" width="5.18" height="36.2" rx="0.35" style="fill:#dae1e9;stroke:#2f498a;stroke-linejoin:round"/><rect x="42.84" y="120.73" width="20.68" height="5.18" rx="0.5" style="fill:#dae1e9;stroke:#2f498a;stroke-linejoin:round"/><rect x="40.26" y="79.37" width="27.15" height="31.02" rx="1" style="fill:#2accff;stroke:#2f498a;stroke-linejoin:round"/><path d="M87.88,118.16h37.87a2.38,2.38,0,0,1,2.39,2.38v14.33H85.49V120.54A2.38,2.38,0,0,1,87.88,118.16Z" style="fill:#2a9cff;stroke:#2f498a;stroke-linejoin:round;fill-rule:evenodd"/><path d="M85.49,105.24h42.65v6.47H85.49Z" style="fill:#fff;stroke:#2f498a;stroke-linecap:round;stroke-linejoin:round;fill-rule:evenodd"/><path d="M149.44,41.69l-3.08,10.77H167.9V41.69Z" style="fill:#fff;stroke:#2f498a;stroke-miterlimit:10;fill-rule:evenodd"/><rect x="91.63" y="35.53" width="102.45" height="6.16" rx="1" style="fill:#006094;stroke:#2f498a;stroke-linecap:round;stroke-linejoin:round"/><path d="M152.52,58.62h12.33v93.92H152.52Z" style="fill:#007dc9;stroke:#2f498a;stroke-linecap:round;stroke-linejoin:round;fill-rule:evenodd"/><path d="M164.82,35.53h-12.3l4.92-16a1.29,1.29,0,0,1,2.39,0Z" style="fill:#0090e9;stroke:#2f498a;stroke-linecap:round;stroke-linejoin:round;fill-rule:evenodd"/><path d="M94.21,35.53l64.64-16.14m27.54,16.14L158.85,19.39" style="fill:none;stroke:#2f498a;stroke-linecap:round;stroke-linejoin:round"/><path d="M147.75,58.62h18.86a1.29,1.29,0,0,0,1.29-1.29v-4.8H146.41v4.78a1.25,1.25,0,0,0,.39.94A1.28,1.28,0,0,0,147.75,58.62Z" style="fill:#2a90ff;stroke:#2f498a;stroke-linecap:round;stroke-linejoin:round;fill-rule:evenodd"/><path d="M149.44,41.69l-3.08,10.77H167.9V41.69Z" style="fill:none;stroke:#2f498a;stroke-linecap:round;stroke-linejoin:round"/><path d="M100.87,41.69h12.32v6.16H100.87Z" style="fill:#0097e9;stroke:#2f498a;stroke-linecap:round;stroke-linejoin:round;fill-rule:evenodd"/><path d="M110.21,79.87a3.08,3.08,0,1,1-3.06-3.08A3.08,3.08,0,0,1,110.21,79.87Z" style="fill:#fff;stroke:#2f498a;stroke-linecap:round;stroke-linejoin:round;fill-rule:evenodd"/><path d="M152.52,87.85l12.3,12.32m0-12.32-12.3,12.32m0,1.53L164.82,114m0-12.32L152.52,114m0,.34,12.3,12.32m0-12.32-12.3,12.32m0,.62,12.3,12.3m0-12.3-12.3,12.3m0-65.6,12.3,12.32m0-12.32-12.3,12.32m0-26.17,12.3,12.32m0-12.32-12.3,12.32" style="fill:none;stroke:#2f498a;stroke-linecap:round;stroke-linejoin:round"/><path d="M188.58,152.54H143.33v-4a1.19,1.19,0,0,1,1.19-1.2h42.87a1.19,1.19,0,0,1,1.19,1.2v4Z" style="fill:#0c2442;stroke:#2f498a;stroke-linecap:round;stroke-linejoin:round;fill-rule:evenodd"/><path d="M166.59,147.36H149.87v-4a1.19,1.19,0,0,1,1.2-1.19H165.4a1.19,1.19,0,0,1,1.19,1.19Z" style="fill:#2a90ff;stroke:#2f498a;stroke-linecap:round;stroke-linejoin:round;fill-rule:evenodd"/><path d="M186,147.36H173.06v-5.18H186Z" style="fill:#fff;stroke:#2f498a;stroke-linecap:round;stroke-linejoin:round;fill-rule:evenodd"/><path d="M186,142.2H173.06V137H186Zm0-5.18H173.06v-5.18H186Z" style="fill:#fff;stroke:#2f498a;stroke-linecap:round;stroke-linejoin:round;fill-rule:evenodd"/><path d="M107.13,83l9.05,8H98.1Z" style="fill:none;stroke:#2f498a;stroke-linecap:round;stroke-linejoin:round"/><path d="M124.27,97.47H90V91h34.27Z" style="fill:#fff;stroke:#2f498a;stroke-linecap:round;stroke-linejoin:round;fill-rule:evenodd"/><path d="M107.13,76.79V47.85" style="fill:none;stroke:#2f498a;stroke-linecap:round;stroke-linejoin:round"/></svg>
