<svg xmlns="http://www.w3.org/2000/svg" width="206" height="160"><path d="M198.15,94.11A94.12,94.12,0,1,0,18.29,132.94H189.75A93.53,93.53,0,0,0,198.15,94.11Z" style="fill:#e2e8f0;fill-rule:evenodd"/><path d="M.5,132.94H6.38m192.94,0h5.89m-194.12,0H194.62" style="fill:none;stroke:#003b6a;stroke-linecap:round;stroke-linejoin:round"/><ellipse cx="84.48" cy="156.37" rx="54.19" ry="2.64" style="fill:#e2e8f0"/><path d="M30.76,69.29H139v74.6c0,3.06-2,5.54-4.4,5.54H35.16a4,4,0,0,1-3.11-1.62,6.32,6.32,0,0,1-1.29-3.92Z" style="fill:#fff;stroke:#003b6a;stroke-linecap:round;stroke-linejoin:round;fill-rule:evenodd"/><path d="M35.68,54.11H134.1A4.93,4.93,0,0,1,139,58.82V69.19H30.78V58.82A4.92,4.92,0,0,1,35.68,54.11Z" style="fill:#fff;stroke:#003b6a;stroke-miterlimit:10;fill-rule:evenodd"/><path d="M35.68,54.11H134.1A4.93,4.93,0,0,1,139,58.82V69.19H30.78V58.82A4.92,4.92,0,0,1,35.68,54.11Z" style="fill:#2f4977;stroke:#003b6a;stroke-linecap:round;stroke-linejoin:round;fill-rule:evenodd"/><circle cx="38.38" cy="61.64" r="2.54" style="fill:#3fc6ff;stroke:#3fc6ff;stroke-linecap:round;stroke-linejoin:round"/><circle cx="48.57" cy="61.64" r="2.54" style="fill:#fff;stroke:#fff;stroke-linecap:round;stroke-linejoin:round"/><circle cx="58.76" cy="61.64" r="2.54" style="fill:#158bff;stroke:#158bff;stroke-linecap:round;stroke-linejoin:round"/><rect x="39.7" y="77.64" width="28.23" height="30.57" rx="1" style="fill:#2a90ff;stroke:#003b6a;stroke-linejoin:round"/><path d="M44.57,116.42h77.31a4.79,4.79,0,0,1,4.88,4.7v28.24H39.7V121.12A4.78,4.78,0,0,1,44.57,116.42Z" style="fill:#00598a;stroke:#003b6a;stroke-linejoin:round;fill-rule:evenodd"/><path d="M75,90.58h51.77v4.71H75Zm0,12.94h51.77v4.71H75Zm51.77-21.17H75V77.64h51.77Z" style="fill:#f5f7fa;stroke:#003b6a;stroke-linecap:round;stroke-linejoin:round;fill-rule:evenodd"/><path d="M155.62,70.91l6-5.92L172,75.36l-6,5.92Z" style="fill:#fff;stroke:#003b6a;stroke-linecap:round;stroke-linejoin:round;fill-rule:evenodd"/><ellipse cx="137.72" cy="48.7" rx="31.59" ry="31.47" transform="translate(-7.14 67.53) rotate(-26.88)" style="fill:#dae1e9;stroke:#003b6a;stroke-linecap:round;stroke-linejoin:round"/><ellipse cx="137.73" cy="48.7" rx="25.31" ry="25.14" style="fill:#fff;stroke:#003b6a;stroke-miterlimit:10"/><path d="M155.62,30.92a25,25,0,0,1,5.49,27.4,25.38,25.38,0,0,1-46.77,0,25,25,0,0,1,5.49-27.4A25.46,25.46,0,0,1,155.62,30.92Z" style="fill:none;stroke:#003b6a"/><path d="M192.69,100.72l-1.08,1.07a5.57,5.57,0,0,1-7.84,0L164.4,82.56a1.82,1.82,0,0,1,0-2.59l6.3-6.27a1.88,1.88,0,0,1,2.62,0l19.35,19.22a5.45,5.45,0,0,1,1.64,3.89A5.52,5.52,0,0,1,192.69,100.72Z" style="fill:#0abdff;stroke:#003b6a;stroke-miterlimit:10;fill-rule:evenodd"/><path d="M164.4,80l6.38-6.34a1.87,1.87,0,0,1,2.61,0l19.36,19.24a5.48,5.48,0,0,1,0,7.79l-1.07,1.07a5.56,5.56,0,0,1-7.84,0L164.47,82.49a1.83,1.83,0,0,1,0-2.6Z" style="fill:none;stroke:#003b6a"/><path d="M123.26,48.1l5.39-5.36a2.05,2.05,0,0,0,0-2.94,2.09,2.09,0,0,0-3,0l-6.38,6.36a4.12,4.12,0,0,0,0,5.86l6.38,6.33a2.09,2.09,0,0,0,3,0,2,2,0,0,0,0-2.92l-5.39-5.36a1.35,1.35,0,0,1-.42-1,1.38,1.38,0,0,1,.42-1Zm28.07,0-5.42-5.36a2.08,2.08,0,1,1,2.94-2.94l6.4,6.36a4.13,4.13,0,0,1,0,5.85l-6.38,6.34a2.08,2.08,0,0,1-2.94,0,2.05,2.05,0,0,1,0-2.92l5.4-5.38a1.36,1.36,0,0,0,0-1.95ZM133.41,60.92a2.19,2.19,0,0,1-1.28-1.09,2.16,2.16,0,0,1-.12-1.67l7.1-21.47a2.22,2.22,0,0,1,2.77-1.39,2.15,2.15,0,0,1,1.28,1.08,2.11,2.11,0,0,1,.12,1.67l-7.09,21.47a2.19,2.19,0,0,1-2.78,1.4Z" style="fill:#2f4970;fill-rule:evenodd"/></svg>
