<svg xmlns="http://www.w3.org/2000/svg" xmlns:xlink="http://www.w3.org/1999/xlink" viewBox="0 0 800 507"><defs><radialGradient id="a" cx="208.5" cy="-286.5" r="59.5" gradientTransform="translate(0 382)" gradientUnits="userSpaceOnUse"><stop offset="0.76" stop-color="#e1e1e1"/><stop offset="0.78" stop-color="#e6e6e6" stop-opacity="0.64"/><stop offset="0.8" stop-color="#ececec" stop-opacity="0.3"/><stop offset="0.81" stop-color="#efefef" stop-opacity="0.08"/><stop offset="0.82" stop-color="#f0f0f0" stop-opacity="0"/></radialGradient><linearGradient id="b" x1="400" y1="-82" x2="400" y2="42" gradientTransform="translate(0 382)" gradientUnits="userSpaceOnUse"><stop offset="0" stop-color="#e0e0e0"/><stop offset="0.29" stop-color="#e0e0e0" stop-opacity="0.99"/><stop offset="0.43" stop-color="#e1e1e1" stop-opacity="0.96"/><stop offset="0.54" stop-color="#e3e3e3" stop-opacity="0.9"/><stop offset="0.64" stop-color="#e6e6e6" stop-opacity="0.81"/><stop offset="0.72" stop-color="#e9e9e9" stop-opacity="0.71"/><stop offset="0.8" stop-color="#ededed" stop-opacity="0.57"/><stop offset="0.87" stop-color="#f2f2f2" stop-opacity="0.41"/><stop offset="0.93" stop-color="#f8f8f8" stop-opacity="0.23"/><stop offset="0.99" stop-color="#fefefe" stop-opacity="0.03"/><stop offset="1" stop-color="#fff" stop-opacity="0"/></linearGradient><radialGradient id="c" cx="589.6" cy="1292.2" r="78.65" gradientTransform="matrix(1, 0, 0, -1, 1.02, 1517.16)" gradientUnits="userSpaceOnUse"><stop offset="0" stop-color="#e0e0e0"/><stop offset="1" stop-color="#ccc" stop-opacity="0"/></radialGradient><radialGradient id="d" cx="400" cy="736.02" r="256.27" gradientTransform="matrix(1, 0, 0, -1, 0, 966.02)" gradientUnits="userSpaceOnUse"><stop offset="0" stop-color="#cfcfcf"/><stop offset="1" stop-color="#d4d4d4"/></radialGradient><linearGradient id="e" x1="399" y1="1117.63" x2="399" y2="1135.63" gradientTransform="matrix(1, 0, 0, -1, 0, 1486.63)" gradientUnits="userSpaceOnUse"><stop offset="0" stop-color="#fff" stop-opacity="0"/><stop offset="1" stop-color="#b3b3b3" stop-opacity="0.8"/></linearGradient><radialGradient id="f" cx="474.96" cy="-181.5" r="4.82" gradientTransform="translate(0 382)" gradientUnits="userSpaceOnUse"><stop offset="0.76" stop-color="#ebebeb"/><stop offset="0.77" stop-color="#ececec" stop-opacity="0.86"/><stop offset="0.78" stop-color="#eee" stop-opacity="0.66"/><stop offset="0.79" stop-color="#f0f0f0" stop-opacity="0.48"/><stop offset="0.8" stop-color="#f2f2f2" stop-opacity="0.33"/><stop offset="0.81" stop-color="#f3f3f3" stop-opacity="0.21"/><stop offset="0.82" stop-color="#f4f4f4" stop-opacity="0.12"/><stop offset="0.83" stop-color="#f4f4f4" stop-opacity="0.05"/><stop offset="0.85" stop-color="#f5f5f5" stop-opacity="0.01"/><stop offset="0.87" stop-color="#f5f5f5" stop-opacity="0"/></radialGradient></defs><circle cx="208.5" cy="95.5" r="41.5" style="fill:#cdcdcd"/><path d="M250,95.5a41.51,41.51,0,0,1-62,36.07,294.45,294.45,0,0,1,60.46-47.45A41.26,41.26,0,0,1,250,95.5Z" style="fill:#c8c8c8"/><path d="M244.94,93.61,241,92.48l-.47-.14a23.88,23.88,0,0,0-9.49.2c-5.8,1.72-2.45,6.06-9.38,4.08-.89-.25-.93-4.36-.48-5.93.19-.67,3.25-1.25,4.57-1.6A2.35,2.35,0,0,0,227.57,87l-1.31-3a2.58,2.58,0,0,1,1.36-2.26L233,79.6a5.9,5.9,0,0,0,2.85-2.32l6.25-6.14A41.26,41.26,0,0,1,250,95.5" style="fill:#b6b6b6"/><path d="M219.43,120.69c.33,1.13,1.51,5.49,2.5,10.12.17.88.45,2.09.73,3.29a40.85,40.85,0,0,0,7.91-4.15,42.39,42.39,0,0,0,6.45-5.36l-17.67-4.19a2.45,2.45,0,0,1,.08.29Z" style="fill:#afafaf"/><path d="M208.69,69,205.5,80.18c-1.28,4.47-5.08,3.38-8,2.56-7.16-2-7.86,2.11-8.63,4.79s-1.27,4.47-3.28,3.89-.07-4.85-3.42-5.81l-2-.56-10.94-3.12a41.55,41.55,0,0,1,32.4-27.36,19.4,19.4,0,0,0-2.41,4.25c-.77,2.68,1.95,4.18,5.75,5.27C209.48,65.36,208.88,68.32,208.69,69Zm-7,41.5-1.71,6s-3,3.78-3.71,4.55a76,76,0,0,0-8.87,10.17,41,41,0,0,1-5-3.48c-.7-.57-1.37-1.16-2-1.77l2.5-8.77V100.3l2.54-1.41.34-.19,1.78.5,3.58,1c1.57.45,3.13,2.59,4.09,4.3,1.95,4.7,3.79,5.22,6.46,6Z" style="fill:#b9b9b9"/><path d="M250,95.5A41.43,41.43,0,0,1,231.58,130a21.14,21.14,0,0,0-11.07-9.26h-.08c-.91-.38-8.47-3.88-6.31-11.46.71-2.45,2.56-8.94,13.74-5.75,6.7,1.92,11.81,1,12.45-1.28,1.91-6.7.32-9.58.32-9.58a1.77,1.77,0,0,0,.31-.15H241c2.45-1.36,4.16-6.32,7.51-8.08A41.3,41.3,0,0,1,250,95.5Z" style="fill:#9b9b9b"/><path d="M202.91,114.52c-2.07,7.36-6.67,6.53-6.67,6.53-3.33-.93-11.27,1-13.87,6.69-.7-.57-1.37-1.16-2-1.77s-1.38-1.31-2-2c.57-4.84-1-13,1-19.82,1.29-4.47-4.43-9-5.84-10.86-1.89-2.49-4.21-5.48-5.09-8.28.27-1,.58-2.07.94-3.08a41.35,41.35,0,0,1,10.27-16.15,12.55,12.55,0,0,1,1.06,8.28c-1,3.36,2.75,7.32,1.6,11.34a8,8,0,0,0-2-.35c-2-.07-3,.94-3.31,2l-.63,2.23c-.33,1.13.37,2,1.72,2.43,1.79.51,1.88,1,1.56,2.14s.29,3.23,1.63,3.61l4.25,1.21-.07.25c-2.36,8.54.94,12.1,5.37,13.35,8.5,2.43,10.89-1.72,10.89-1.72,1.28.39,1.44,3.08,1.19,4Z" style="fill:#aaa"/><path d="M208.5,36A59.5,59.5,0,1,0,268,95.5,59.5,59.5,0,0,0,208.5,36Zm0,101A41.5,41.5,0,1,1,250,95.5,41.5,41.5,0,0,1,208.5,137Z" style="fill:url(#a)"/><path d="M615.24,134.87a293.48,293.48,0,0,0-98.09-68.15,301.13,301.13,0,0,0-234.3,0A292.74,292.74,0,0,0,188,131.57c-1.08,1.09-2.14,2.19-3.2,3.3C127.57,195,96.05,277.26,96,366.62c1.29,1.3,14,13.23,56.69,25.28,25.54,7.22,56.66,13,92.48,17.14,44.6,5.18,96.7,7.85,154.84,8,58.12-.11,110.22-2.78,154.82-8,35.82-4.15,66.94-9.92,92.48-17.14,42.64-12,55.4-24,56.69-25.28,0-89.35-31.56-171.62-88.76-231.75Z" style="fill:#fff;isolation:isolate;opacity:0.44999998807907104"/><path d="M374.5,0l1,7.16a1.55,1.55,0,0,0,.44.87,1.61,1.61,0,0,0,.87.44l7.15,1-7.16,1a1.55,1.55,0,0,0-.87.44,1.61,1.61,0,0,0-.44.87l-1,7.15-1-7.16A1.51,1.51,0,0,0,373,11a1.61,1.61,0,0,0-.87-.44l-7.15-1,7.16-1A1.52,1.52,0,0,0,373,8a1.61,1.61,0,0,0,.44-.87Z" style="fill:#fff"/><path d="M633.5,102l1.37,9.42a2,2,0,0,0,.57,1.14,2.08,2.08,0,0,0,1.14.58L646,114.5l-9.42,1.37a2,2,0,0,0-1.72,1.71L633.5,127l-1.37-9.42a2,2,0,0,0-.57-1.14,2.08,2.08,0,0,0-1.14-.58L621,114.5l9.42-1.37a2,2,0,0,0,1.72-1.71Zm-380,185,.82,5.65a1.24,1.24,0,0,0,.35.69,1.11,1.11,0,0,0,.68.34l5.65.82-5.65.82a1.24,1.24,0,0,0-.69.35,1.11,1.11,0,0,0-.34.68L253.5,302l-.82-5.65a1.24,1.24,0,0,0-.35-.69,1.11,1.11,0,0,0-.68-.34L246,294.5l5.65-.82a1.24,1.24,0,0,0,.69-.35,1.11,1.11,0,0,0,.34-.68Z" style="fill:#fafafa"/><circle cx="288" cy="38" r="3" style="fill:#fff"/><path d="M405.5,155l.6,4.15a1,1,0,0,0,.25.5,1,1,0,0,0,.51.25l4.14.6-4.15.6a1,1,0,0,0-.5.25,1,1,0,0,0-.25.51l-.6,4.14-.6-4.15a1,1,0,0,0-.25-.5,1,1,0,0,0-.51-.25l-4.14-.6,4.15-.6a1,1,0,0,0,.5-.25,1,1,0,0,0,.25-.51Zm59-49,.6,4.15a1,1,0,0,0,.25.5,1,1,0,0,0,.51.25l4.14.6-4.15.6a1,1,0,0,0-.5.25,1,1,0,0,0-.25.51l-.6,4.14-.6-4.15a1,1,0,0,0-.25-.5,1,1,0,0,0-.51-.25l-4.14-.6,4.15-.6a1,1,0,0,0,.5-.25,1,1,0,0,0,.25-.51Zm-231,86,1.15,7.91a1.66,1.66,0,0,0,.48,1,1.73,1.73,0,0,0,1,.49l7.87,1.1-7.91,1.15a1.66,1.66,0,0,0-1,.48,1.73,1.73,0,0,0-.49,1L233.5,213l-1.15-7.91a1.66,1.66,0,0,0-.48-1,1.73,1.73,0,0,0-1-.49L223,202.5l7.91-1.15a1.66,1.66,0,0,0,1-.48,1.73,1.73,0,0,0,.49-1Zm-69,78,.6,4.15a1,1,0,0,0,.25.5,1,1,0,0,0,.51.25l4.14.6-4.15.6a1,1,0,0,0-.5.25,1,1,0,0,0-.25.51l-.6,4.14-.6-4.15a1,1,0,0,0-.25-.5,1,1,0,0,0-.51-.25l-4.14-.6,4.15-.6a1,1,0,0,0,.5-.25,1,1,0,0,0,.25-.51Zm390-112,.6,4.15a1,1,0,0,0,.25.5,1,1,0,0,0,.51.25l4.14.6-4.14.6a.87.87,0,0,0-.76.76l-.6,4.14-.6-4.15a1,1,0,0,0-.25-.5,1,1,0,0,0-.51-.25l-4.14-.6,4.14-.6a.87.87,0,0,0,.76-.76Zm-332,112,.6,4.14a.87.87,0,0,0,.76.76l4.14.6-4.14.6a.87.87,0,0,0-.76.76l-.6,4.14-.6-4.15a1,1,0,0,0-.25-.5.91.91,0,0,0-.51-.25l-4.14-.6,4.14-.6a.87.87,0,0,0,.76-.76Zm448,10,.6,4.15a.87.87,0,0,0,.26.5,1,1,0,0,0,.5.25l4.14.6-4.14.6a.87.87,0,0,0-.76.76l-.6,4.14-.6-4.15a1,1,0,0,0-.25-.5,1,1,0,0,0-.51-.25l-4.14-.6,4.15-.6a1,1,0,0,0,.5-.25,1,1,0,0,0,.25-.51Z" style="fill:#fafafa"/><path d="M373.5,80l.82,5.65a1.24,1.24,0,0,0,.35.69,1.11,1.11,0,0,0,.68.34l5.65.82-5.65.82a1.24,1.24,0,0,0-.69.35,1.11,1.11,0,0,0-.34.68L373.5,95l-.82-5.65a1.24,1.24,0,0,0-.35-.69,1.11,1.11,0,0,0-.68-.34L366,87.5l5.65-.82a1.24,1.24,0,0,0,.69-.35,1.11,1.11,0,0,0,.34-.68Zm231,210,.82,5.65a1.24,1.24,0,0,0,.35.69,1.11,1.11,0,0,0,.68.34l5.65.82-5.65.82a1.24,1.24,0,0,0-.69.35,1.11,1.11,0,0,0-.34.68L604.5,305l-.82-5.65a1.24,1.24,0,0,0-.35-.69,1.11,1.11,0,0,0-.68-.34L597,297.5l5.65-.82a1.24,1.24,0,0,0,.69-.35,1.11,1.11,0,0,0,.34-.68Zm-103-115,.82,5.65a1.24,1.24,0,0,0,.35.69,1.11,1.11,0,0,0,.68.34l5.65.82-5.65.82a1.24,1.24,0,0,0-.69.35,1.11,1.11,0,0,0-.34.68L501.5,190l-.82-5.65a1.24,1.24,0,0,0-.35-.69,1.11,1.11,0,0,0-.68-.34L494,182.5l5.65-.82a1.24,1.24,0,0,0,.69-.35,1.11,1.11,0,0,0,.34-.68Zm27-62,1.5,10.17a2.19,2.19,0,0,0,.62,1.24,2.26,2.26,0,0,0,1.23.62L542,126.5,531.83,128a2.2,2.2,0,0,0-1.86,1.85L528.5,140,527,129.83a2.19,2.19,0,0,0-.62-1.24,2.26,2.26,0,0,0-1.23-.62L515,126.5l10.17-1.5a2.2,2.2,0,0,0,1.86-1.85Z" style="fill:#fff"/><circle cx="525" cy="8" r="3" style="fill:#fafafa"/><circle cx="481" cy="28" r="2" style="fill:#fff"/><circle cx="639" cy="310" r="2" style="fill:#fff"/><circle cx="583" cy="34" r="4" style="fill:#fafafa"/><circle cx="144" cy="224" r="3" style="fill:#eee"/><circle cx="376" cy="188.07" r="3" style="fill:#eee"/><circle cx="140" cy="149" r="2" style="fill:#fafafa"/><path d="M779,424S692.29,300,400,300,21,424,21,424H0v83H800V424Z" style="fill:#fff"/><path d="M21,424s86.71-124,379-124S779,424,779,424Z" style="fill:url(#b)"/><circle cx="589.5" cy="225.5" r="78.5" style="fill:url(#c)"/><circle cx="589.5" cy="225.5" r="18.5" style="fill:#fff"/><path d="M400,47A293.12,293.12,0,0,1,515.58,70.4a289.55,289.55,0,0,1,96.77,67.23c56.1,59,87.18,139.58,87.64,227.19-4,3.24-18.66,13.44-54.88,23.55-25.38,7.08-56.25,12.74-91.77,16.82-44.22,5.08-95.81,7.7-153.33,7.81-57.54-.11-109.13-2.73-153.35-7.81-35.52-4.08-66.39-9.74-91.77-16.82C118.65,378.25,104,368.05,100,364.82c.47-87.64,31.55-168.25,87.65-227.19A289.41,289.41,0,0,1,284.41,70.4,293.16,293.16,0,0,1,400,47m0-8c-82.87,0-161,33.07-218.14,93.12C123.91,193,92,276.36,92,366.85a3.5,3.5,0,0,0,1,2.43c2,2.1,51.94,51.25,307,51.72,255.06-.47,305-49.62,307-51.72a3.5,3.5,0,0,0,1-2.43c0-90.49-31.91-173.85-89.86-234.73C561,72.07,482.87,39,400,39Z" style="fill:url(#d)"/><path d="M440.25,238H426a2,2,0,0,1,0-4h14.25a28.81,28.81,0,0,0,6.28-.59h.16c.32-.06,3.31-.65,3.31-3.45a19.79,19.79,0,0,0-.67-4.19c-2.07-8.92-4.23-16.59-5.66-21.66l-.15-.52c-.16-.57-.34-1.23-.53-1.93-1-3.73-3.65-13.63-6.52-13.63a2,2,0,0,1,0-4c5.94,0,8.51,9.59,10.39,16.59.18.69.35,1.32.51,1.88l.15.53c1.44,5.1,3.62,12.82,5.71,21.83A24.09,24.09,0,0,1,454,230c0,5-4.27,7-6.61,7.39A31.67,31.67,0,0,1,440.25,238Z" style="fill:#ebebeb"/><path d="M441.77,145.43l-1-.43L424,227h1.06a5.4,5.4,0,0,0,5.31-4.21l14.52-71.38a5.34,5.34,0,0,0-3.12-6Z" style="fill:#fafafa"/><path d="M568,351a18,18,0,0,1-18,18H248a18,18,0,0,1-18-18Z" style="isolation:isolate;opacity:0.20000000298023224;fill:url(#e)"/><path d="M387,225l5,1h7.27a10.57,10.57,0,0,1,1.49.13c.92.16,2.5.44,3.57.69a3.17,3.17,0,0,1,1.84,1.1c1.08,1.36,4.82,4.78,4.83,5.79,0,.23-.05.75-.83.82-.95.09-6.14-3-6.14-3l-4-.59-1,1a16.49,16.49,0,0,0,3,1.35c1,.35,1,.68,1,1.18,0,.21-.09.68-.8.75-1.13.12-3.4-.28-5.12-.28a8.48,8.48,0,0,1-5.08-2h-7Z" style="fill:#4d3e34"/><path d="M343,186c-4,0-9,1-9,14,0,6,2.22,22.78,8,30,4,5,37.62,3,43,3l2-8s-14.91-3.16-30.72-5.8c0,0-1.32-5.44-3.51-15.92C350,190,347.12,186,343,186Z" style="fill:#1b3963"/><path d="M344,183c5,3,9,15.49,9,26,0,13-3,27-2,40a87.37,87.37,0,0,1,0,15H320V183Z" style="fill:#22477d"/><path d="M345.72,335.62A5,5,0,0,1,345,333a4.66,4.66,0,0,1,1.44-3c4.56-5,6.56-7,6.56-7l8,6a10.7,10.7,0,0,0-3,8,9.64,9.64,0,0,0,2,6s4,2,4,8h-6.34a4,4,0,0,1-3.38-1.87Z" style="fill:#212121"/><path d="M337,275c12,3,29,5,29,5-7,18-17,46-17,46l13,6s28.72-42,28.72-57.7C390.72,266,384,256,344,251c-13.94-1.74-19,5-19,11C325,270,331,273.5,337,275Z" style="fill:#6d4c41"/><path d="M395,333s.35,1.47,5,11c1.26,2.58,2.08,7,5,7,1.77,0,21.49-8.14,24-9,0-2-3-5-8-5-4,0-8,1-10,1s-5-9-5-9Z" style="fill:#212121"/><path d="M327,257c-19.89,0-27,8-27,8s0,21,19,21h51c0,10,24.93,50.52,25,51l13-6s-13-40.33-19.89-57.8c-1.37-3.47-4.11-6.2-11.44-8.87-19.36-7-45.81-7.33-49.67-7.33Z" style="fill:#8d6e63"/><path d="M390,238H373c0-4,2-5,6-5C389,233,390,238,390,238Z" style="fill:#fafafa"/><path d="M365,229h3c1.45,0,7.08-2,10-2,1.5,0,5.29,1.4,7,2,1.54.54,4,4.81,4,6,0,.74-.28,1-1,1-1,0-4-1-8-1-1.51,0-7,1-9,1h-6Zm-15-51a12.27,12.27,0,0,1-5-1,14.64,14.64,0,0,0-1,6c0,2-1,4-3,4-17,0-14-14-14-14s3-3,3-5v-8c0-15,5-22,16-22s19,7.71,19,16C365,165,358,178,350,178Z" style="fill:#6d584a"/><path d="M346,135c-15,0-18,12-18,18,0,5.22,1.84,9.52,2,12,.05.85,0,3,0,3s7.43-.77,10.42-2.49A3,3,0,0,0,342,163a20.35,20.35,0,0,1-1-5,3.76,3.76,0,0,1,3-4c2,0,3,1.24,3,5a2.78,2.78,0,0,0,3-2c.56-2.28,2.71-8,5-8,2,0,5,5,10,5C365,147,363,135,346,135Z" style="fill:#212121"/><path d="M348,235a140.6,140.6,0,0,0,2-31c-.54-15.28-6-21-6-21s-1,1-4,1c-9,0-13-9-13-9l-7,8v81h14s12-4.15,12-12C346,250.24,347.13,240.11,348,235Z" style="fill:#ffb300"/><path d="M327,173s-13,9-19,20.62c-5.69,11-6.95,32.79-6.75,42.27C301,259,299,261,299,272c0,0,3.95,4,18,4s18.91-9.18,19-11c.43-8.76,0-17,2-33,.62-5,4-15,4-25a30.2,30.2,0,0,0-5-17C327,176,327,173,327,173Z" style="fill:#22477d"/><path d="M323,189c-7,0-11,6-11,24,0,7.95,1.4,18.53,5,22,2.16,2.09,9,3,16,3h32v-9c-13-3-33-7-33-7V206C332,196,330,189,323,189Z" style="fill:#254e8a"/><path d="M417,238H395v-1.11a1,1,0,0,1,.91-1l20-1.87a1,1,0,0,1,1.09.9Z" style="fill:#fafafa"/><path d="M417,238H395l22-2Z" style="fill:#e0e0e0"/><path d="M272,186c0,37.75,12,44.64,12,71,0,21.07-1.48,41,26.63,41H353v-7a5,5,0,0,0-5-5H310.63c-3.88,0-9-.48-11.26-2.77-3.44-3.46-3.41-13.48-3.38-23.18V257c0-13.83-2.92-23.17-5.74-32.22-3.08-9.85-6.26-20-6.26-38.78a5,5,0,0,0-5-4.95h-7Z" style="fill:#546e7a"/><path d="M348,303H310.63c-10.47,0-18.09-2.54-23.3-7.77C278.9,286.77,279,273.77,279,260v-3c0-11.24-2.3-18.61-5-27.15-3.29-10.56-7-22.52-7-43.85a5,5,0,0,1,5-5h5v5c0,19.81,3.34,30.51,6.58,40.87C286.37,235.8,289,244.24,289,257v3c0,11.64-.07,22.63,5.42,28.14,3.24,3.25,8.55,4.83,16.22,4.83H353v5a5,5,0,0,1-5,5Z" style="fill:#455a64"/><path d="M321,299a3,3,0,0,1-1.28-5.71c.17-.08,17.28-8.38,17.28-20.46,0-2.71-.66-5.83-5.83-5.83H285a3,3,0,0,1,0-6h46.17c7.3,0,11.83,4.53,11.83,11.83,0,15.89-19.87,25.48-20.72,25.88A3,3,0,0,1,321,299Zm15.1,48.69S334,344,319,344c-9.91,0-14.15,1.62-15.8,2.59a3.52,3.52,0,0,0-1.27,1.06l-1.3-.41-1-.19-3.63-.29c.16-2.05,2.31-8.76,23-8.76s22.83,6.71,23,8.76l-6,.48a1.14,1.14,0,0,0,.1.45Z" style="fill:#263238"/><path d="M353,352.46c-.58-2.36-7.81-8.46-34-8.46s-33.46,6.1-34,8.46a.81.81,0,0,0,0-.22l-6-.48c.18-2.3,3-13.76,40-13.76s39.81,11.46,40,13.76l-6,.48A.81.81,0,0,0,353,352.46Z" style="fill:#546e7a"/><path d="M313,303h12v37H313Z" style="fill:#37474f"/><rect x="311" y="334" width="16" height="12" rx="3" style="fill:#455a64"/><path d="M319,358a3,3,0,0,1-3-3V341a3,3,0,0,1,6,0h0v14A3,3,0,0,1,319,358Z" style="fill:#78909c"/><rect x="315" y="355" width="8" height="7" rx="2" style="fill:#263238"/><rect x="278" y="351" width="8" height="7" rx="2" style="fill:#263238"/><rect x="295" y="346" width="8" height="7" rx="2" style="fill:#263238"/><rect x="335" y="346" width="8" height="7" rx="2" style="fill:#263238"/><rect x="352" y="351" width="8" height="7" rx="2" style="fill:#263238"/><path d="M502,221a10.62,10.62,0,0,0-5.48-9.13l1-1.76A12.63,12.63,0,0,1,504,221Z" style="fill:#33691e"/><path d="M503,221l-2-.06a10.74,10.74,0,0,0-4.58-9.15l1.16-1.64A12.79,12.79,0,0,1,503,221Z" style="fill:#33691e"/><path d="M503,221a12.79,12.79,0,0,1,5.42-10.85l1.16,1.64A10.74,10.74,0,0,0,505,221Z" style="fill:#33691e"/><path d="M511.5,203c4.31,0,9.23,3.39,10.5,4.31-2.75,1.07-4.6,4.41-9.47,5.05-3.25.41-4-.77-4-.77s-2.57-.25-2.57-4c0-1.94,1.68-4.59,5.54-4.59Z" style="fill:#558b2f"/><path d="M512.8,217.92c4.65-.65,6.41-9.54,9.2-10.61-2.17-.32-5.58,1-13.43,4.28C506.81,216.42,509.39,218.45,512.8,217.92Z" style="fill:#33691e"/><path d="M497.54,203.85c-4.24-2.09-10.86.26-12.54.86,2.47,1.48,2.12,9.46,6.63,10.94,3.18,1,5.65-.17,5.91-4.51,3.54-2,3-5.82,0-7.29Z" style="fill:#558b2f"/><path d="M491.63,215.65c-4.51-1.48-4.16-9.46-6.63-10.94,2.21.18,5.39,2.09,12.54,6.43C497.28,215.48,494.89,216.69,491.63,215.65ZM502,205h2v15h-2Z" style="fill:#33691e"/><path d="M503,194a11.61,11.61,0,0,0-3,7.38c0,4.62,3,4.62,3,4.62s3,0,3-2.77C506,200.82,503,198.62,503,194Z" style="fill:#558b2f"/><path d="M492,223l3,15h16l3-15Z" style="fill:#e64a19"/><path d="M514,226H492a1,1,0,0,1-1-1v-4h24v4A1.08,1.08,0,0,1,514,226Z" style="fill:#bf360c"/><path d="M463,219h32v10H463Z" style="fill:#ffb300"/><path d="M468,219h2v10h-2Zm20,0h2v10h-2Zm-15,3h12v4H473Z" style="fill:#ff8f00"/><path d="M463,229h32v9H463Z" style="fill:#2e7d32"/><path d="M468,229h2v9h-2Zm20,0h2v9h-2Zm-15,3h12v3H473Z" style="fill:#7cb342"/><path d="M467,210h27v9H467Z" style="fill:#1565c0"/><path d="M470,210h2v9h-2Zm19,0h2v9h-2Zm-14,3h11v3H475Z" style="fill:#64b5f6"/><path d="M478,195l1,11h-3.71a3,3,0,0,1-2.89-2.21l-1.37-5a3,3,0,0,1,2.1-3.68,3.09,3.09,0,0,1,.8-.11Z" style="fill:url(#f)"/><path d="M480.09,207h-4.8a4,4,0,0,1-3.85-2.95l-1.37-5a3.93,3.93,0,0,1,.38-3,4,4,0,0,1,2.42-1.88,4.15,4.15,0,0,1,1.05-.14h5Zm-6.16-11a1.88,1.88,0,0,0-.53.07,2,2,0,0,0-1.4,2.46h0l1.37,5a2,2,0,0,0,1.92,1.47h2.62l-.82-9Z" style="fill:#1b3963"/><path d="M477,210h12a111.16,111.16,0,0,0,2-19,1,1,0,0,0-1-1H476a1,1,0,0,0-1,1A111.16,111.16,0,0,0,477,210Z" style="fill:#254e8a"/><path d="M517,298.25V353h-9V243h9Zm-43-.5V353h-9V243h9Z" style="fill:#4e342e"/><path d="M371,238H531v11H371Zm54,105H531v10H425Z" style="fill:#6d4c41"/></svg>