<svg xmlns="http://www.w3.org/2000/svg" width="210" height="160"><defs><radialGradient id="a" cx="53.69" cy="-357.41" r="15.32" gradientTransform="translate(0 382)" gradientUnits="userSpaceOnUse"><stop offset="0.76" stop-color="#e1e1e1"/><stop offset="0.78" stop-color="#e6e6e6" stop-opacity="0.64"/><stop offset="0.8" stop-color="#ececec" stop-opacity="0.3"/><stop offset="0.81" stop-color="#efefef" stop-opacity="0.08"/><stop offset="0.82" stop-color="#f0f0f0" stop-opacity="0"/></radialGradient><linearGradient id="b" x1="103" y1="-304.75" x2="103" y2="-272.82" gradientTransform="translate(0 382)" gradientUnits="userSpaceOnUse"><stop offset="0" stop-color="#e0e0e0"/><stop offset="0.29" stop-color="#e0e0e0" stop-opacity="0.99"/><stop offset="0.43" stop-color="#e1e1e1" stop-opacity="0.96"/><stop offset="0.54" stop-color="#e3e3e3" stop-opacity="0.9"/><stop offset="0.64" stop-color="#e6e6e6" stop-opacity="0.81"/><stop offset="0.72" stop-color="#e9e9e9" stop-opacity="0.71"/><stop offset="0.8" stop-color="#ededed" stop-opacity="0.57"/><stop offset="0.87" stop-color="#f2f2f2" stop-opacity="0.41"/><stop offset="0.93" stop-color="#f8f8f8" stop-opacity="0.23"/><stop offset="0.99" stop-color="#fefefe" stop-opacity="0.03"/><stop offset="1" stop-color="#fff" stop-opacity="0"/></linearGradient><radialGradient id="c" cx="151.06" cy="1168.9" r="20.25" gradientTransform="matrix(1, 0, 0, -1, 1.02, 1226.82)" gradientUnits="userSpaceOnUse"><stop offset="0" stop-color="#e0e0e0"/><stop offset="1" stop-color="#ccc" stop-opacity="0"/></radialGradient><radialGradient id="d" cx="103" cy="616.46" r="65.99" gradientTransform="matrix(1, 0, 0, -1, 0, 675.68)" gradientUnits="userSpaceOnUse"><stop offset="0" stop-color="#cfcfcf"/><stop offset="1" stop-color="#d4d4d4"/></radialGradient><linearGradient id="e" x1="102.74" y1="1101.28" x2="102.74" y2="1105.91" gradientTransform="matrix(1, 0, 0, -1, 0, 1196.29)" gradientUnits="userSpaceOnUse"><stop offset="0" stop-color="#fff" stop-opacity="0"/><stop offset="1" stop-color="#b3b3b3" stop-opacity="0.8"/></linearGradient><radialGradient id="f" cx="122.3" cy="-330.37" r="1.24" gradientTransform="translate(0 382)" gradientUnits="userSpaceOnUse"><stop offset="0.76" stop-color="#ebebeb"/><stop offset="0.77" stop-color="#ececec" stop-opacity="0.86"/><stop offset="0.78" stop-color="#eee" stop-opacity="0.66"/><stop offset="0.79" stop-color="#f0f0f0" stop-opacity="0.48"/><stop offset="0.8" stop-color="#f2f2f2" stop-opacity="0.33"/><stop offset="0.81" stop-color="#f3f3f3" stop-opacity="0.21"/><stop offset="0.82" stop-color="#f4f4f4" stop-opacity="0.12"/><stop offset="0.83" stop-color="#f4f4f4" stop-opacity="0.05"/><stop offset="0.85" stop-color="#f5f5f5" stop-opacity="0.01"/><stop offset="0.87" stop-color="#f5f5f5" stop-opacity="0"/></radialGradient></defs><circle cx="53.69" cy="24.59" r="10.69" style="fill:#cdcdcd"/><path d="M64.37,24.59a10.69,10.69,0,0,1-16,9.29A75.79,75.79,0,0,1,64,21.66,10.35,10.35,0,0,1,64.37,24.59Z" style="fill:#c8c8c8"/><path d="M63.07,24.1l-1-.29-.12,0a6.13,6.13,0,0,0-2.45,0c-1.49.44-.63,1.56-2.41,1.05-.23-.06-.24-1.12-.13-1.53,0-.17.84-.32,1.18-.41a.61.61,0,0,0,.47-.55l-.34-.77a.65.65,0,0,1,.35-.58L60,20.5a1.54,1.54,0,0,0,.73-.6l1.61-1.58a10.63,10.63,0,0,1,2,6.27" style="fill:#b6b6b6"/><path d="M56.5,31.08c.09.29.39,1.41.65,2.6,0,.23.11.54.18.85a10.44,10.44,0,0,0,2-1.07A10,10,0,0,0,61,32.08L56.48,31a.24.24,0,0,1,0,.08Z" style="fill:#afafaf"/><path d="M53.74,17.77l-.82,2.88c-.33,1.15-1.31.87-2.06.66-1.85-.52-2,.54-2.23,1.23s-.32,1.15-.84,1,0-1.25-.88-1.5l-.52-.14-2.81-.8a10.7,10.7,0,0,1,8.34-7,5.18,5.18,0,0,0-.62,1.1c-.2.69.5,1.07,1.48,1.35C53.94,16.83,53.79,17.59,53.74,17.77ZM51.93,28.45,51.49,30s-.77,1-1,1.17a19.65,19.65,0,0,0-2.28,2.62,11.45,11.45,0,0,1-1.29-.9c-.18-.14-.35-.3-.51-.45l.64-2.26V25.83l.66-.37.08,0,.46.12.92.26c.41.12.81.67,1.06,1.11a2.07,2.07,0,0,0,1.66,1.54Z" style="fill:#b9b9b9"/><path d="M64.37,24.59a10.66,10.66,0,0,1-4.74,8.89,5.44,5.44,0,0,0-2.85-2.39h0c-.23-.1-2.18-1-1.62-2.95.18-.63.66-2.3,3.53-1.48,1.73.49,3,.26,3.21-.33A3.52,3.52,0,0,0,62,23.86a.2.2,0,0,0,.08,0h0c.63-.35,1.07-1.62,1.93-2.08A10.2,10.2,0,0,1,64.37,24.59Z" style="fill:#9b9b9b"/><path d="M52.25,29.49c-.53,1.89-1.72,1.68-1.72,1.68A3.51,3.51,0,0,0,47,32.89c-.18-.14-.35-.3-.51-.45s-.36-.34-.52-.52c.15-1.24-.26-3.35.26-5.1.33-1.15-1.14-2.32-1.51-2.8a8.22,8.22,0,0,1-1.31-2.13,8,8,0,0,1,.25-.79,10.6,10.6,0,0,1,2.64-4.16,3.21,3.21,0,0,1,.27,2.13c-.25.87.71,1.89.41,2.92a2.18,2.18,0,0,0-.51-.09.76.76,0,0,0-.85.52l-.16.57c-.09.29.09.51.44.63s.48.25.4.55a.83.83,0,0,0,.42.93l1.09.31v.06c-.61,2.2.24,3.12,1.38,3.44,2.19.63,2.8-.44,2.8-.44.33.1.37.79.31,1Z" style="fill:#aaa"/><path d="M53.69,9.27A15.32,15.32,0,1,0,69,24.59,15.32,15.32,0,0,0,53.69,9.27Zm0,26A10.69,10.69,0,1,1,64.37,24.59,10.7,10.7,0,0,1,53.69,35.28Z" style="fill:url(#a)"/><path d="M158.42,34.73a75.54,75.54,0,0,0-25.25-17.55,77.6,77.6,0,0,0-60.34,0,75.38,75.38,0,0,0-24.42,16.7c-.28.28-.55.56-.82.85C32.85,50.21,24.73,71.39,24.72,94.4c.33.34,3.6,3.41,14.6,6.51a154.43,154.43,0,0,0,23.81,4.42A360.74,360.74,0,0,0,103,107.39a355.91,355.91,0,0,0,39.87-2.06,154.43,154.43,0,0,0,23.81-4.42c11-3.09,14.27-6.18,14.6-6.51,0-23-8.13-44.19-22.86-59.67Z" style="fill:#fff;isolation:isolate;opacity:0.44999998807907104"/><path d="M96.43,0l.26,1.84a.38.38,0,0,0,.11.23.41.41,0,0,0,.23.11l1.84.26L97,2.7a.39.39,0,0,0-.34.33l-.26,1.84L96.17,3a.37.37,0,0,0-.12-.2.38.38,0,0,0-.23-.11L94,2.46l1.85-.26a.44.44,0,0,0,.22-.14.39.39,0,0,0,.11-.22Z" style="fill:#fff"/><path d="M163.13,26.27l.35,2.42a.54.54,0,0,0,.44.44l2.42.35-2.42.36a.51.51,0,0,0-.44.44l-.35,2.42-.36-2.42a.49.49,0,0,0-.14-.3.57.57,0,0,0-.3-.15l-2.42-.35,2.42-.35a.53.53,0,0,0,.45-.44ZM65.28,73.9l.21,1.46a.34.34,0,0,0,.09.18.34.34,0,0,0,.17.08l1.46.21L65.75,76a.46.46,0,0,0-.18.1.3.3,0,0,0-.08.17l-.21,1.46-.21-1.46a.4.4,0,0,0-.1-.18A.26.26,0,0,0,64.8,76l-1.45-.21,1.45-.21a.31.31,0,0,0,.18-.09.28.28,0,0,0,.09-.17Z" style="fill:#fafafa"/><circle cx="74.16" cy="9.79" r="0.77" style="fill:#fff"/><path d="M104.42,39.91l.15,1.07a.24.24,0,0,0,.07.13.2.2,0,0,0,.13.06l1.06.16-1.07.15a.21.21,0,0,0-.12.07.21.21,0,0,0-.07.13l-.15,1.06-.16-1.06a.26.26,0,0,0-.06-.13.24.24,0,0,0-.13-.07L103,41.33l1.07-.16a.22.22,0,0,0,.13-.06.31.31,0,0,0,.06-.13ZM119.61,27.3l.15,1.06a.26.26,0,0,0,.2.2l1.07.15-1.07.16a.2.2,0,0,0-.13.06.24.24,0,0,0-.07.13l-.15,1.07-.16-1.07a.21.21,0,0,0-.19-.19l-1.07-.16,1.07-.15a.24.24,0,0,0,.13-.07.2.2,0,0,0,.06-.13ZM60.13,49.44l.29,2a.41.41,0,0,0,.13.25.44.44,0,0,0,.25.13l2,.28-2,.3a.39.39,0,0,0-.25.12.43.43,0,0,0-.13.26l-.28,2-.3-2a.41.41,0,0,0-.38-.38l-2-.29,2-.29a.43.43,0,0,0,.26-.13.42.42,0,0,0,.12-.25ZM42.36,69.52l.15,1.07a.26.26,0,0,0,.2.2l1.06.15-1.06.16a.2.2,0,0,0-.13.06.24.24,0,0,0-.07.13l-.15,1.07-.16-1.07A.21.21,0,0,0,42,71.1l-1.07-.16L42,70.79a.24.24,0,0,0,.13-.07.2.2,0,0,0,.06-.13ZM142.78,40.69l.16,1.06a.26.26,0,0,0,.06.13.24.24,0,0,0,.13.07l1.07.15-1.07.16a.21.21,0,0,0-.19.19l-.16,1.07-.15-1.07a.24.24,0,0,0-.07-.13.2.2,0,0,0-.13-.06l-1.06-.16,1.06-.15a.23.23,0,0,0,.2-.2ZM57.29,69.52l.16,1.07a.23.23,0,0,0,.19.2l1.07.15-1.07.16a.21.21,0,0,0-.19.19l-.16,1.07-.15-1.07a.24.24,0,0,0-.07-.13.2.2,0,0,0-.13-.06l-1.06-.16,1.06-.15a.23.23,0,0,0,.2-.2ZM172.65,72.1l.16,1.07a.24.24,0,0,0,.07.13.27.27,0,0,0,.12.06l1.07.16-1.07.15a.21.21,0,0,0-.19.2l-.16,1.06-.15-1.07a.21.21,0,0,0-.07-.12.21.21,0,0,0-.13-.07l-1.06-.15,1.07-.16a.27.27,0,0,0,.12-.06.24.24,0,0,0,.07-.13Z" style="fill:#fafafa"/><path d="M96.18,20.6l.21,1.45a.31.31,0,0,0,.09.18.28.28,0,0,0,.17.09l1.46.21-1.46.21a.34.34,0,0,0-.18.09.37.37,0,0,0-.08.18l-.21,1.45L96,23a.4.4,0,0,0-.1-.18.26.26,0,0,0-.17-.09l-1.46-.21,1.46-.21a.32.32,0,0,0,.27-.27Zm59.48,54.07.21,1.46a.32.32,0,0,0,.27.27l1.45.21-1.45.21a.31.31,0,0,0-.18.09.28.28,0,0,0-.09.17l-.21,1.46-.21-1.46a.34.34,0,0,0-.09-.18.37.37,0,0,0-.18-.08l-1.45-.21,1.45-.21a.4.4,0,0,0,.18-.1.26.26,0,0,0,.09-.17ZM129.14,45.06l.21,1.46a.34.34,0,0,0,.09.18.34.34,0,0,0,.17.08l1.46.21-1.46.21a.46.46,0,0,0-.18.1.3.3,0,0,0-.08.17l-.21,1.45-.21-1.45a.4.4,0,0,0-.1-.18.26.26,0,0,0-.17-.09L127.2,47l1.46-.21a.31.31,0,0,0,.18-.09.28.28,0,0,0,.09-.17Zm7-16,.38,2.62a.57.57,0,0,0,.48.48l2.62.37L137,33a.56.56,0,0,0-.48.48l-.38,2.61-.39-2.62a.52.52,0,0,0-.16-.32.58.58,0,0,0-.31-.16l-2.62-.38,2.62-.38a.57.57,0,0,0,.48-.48Z" style="fill:#fff"/><circle cx="135.19" cy="2.06" r="0.77" style="fill:#fafafa"/><circle cx="123.86" cy="7.21" r="0.51" style="fill:#fff"/><circle cx="164.54" cy="79.82" r="0.51" style="fill:#fff"/><circle cx="150.12" cy="8.75" r="1.03" style="fill:#fafafa"/><circle cx="37.08" cy="57.68" r="0.77" style="fill:#eee"/><circle cx="96.82" cy="48.43" r="0.77" style="fill:#eee"/><circle cx="36.05" cy="38.37" r="0.52" style="fill:#fafafa"/><path d="M200.59,109.18S178.26,77.25,103,77.25,5.41,109.18,5.41,109.18H0v21.37H206V109.18Z" style="fill:#fff"/><path d="M5.41,109.18S27.74,77.25,103,77.25s97.59,31.93,97.59,31.93Z" style="fill:url(#b)"/><circle cx="151.8" cy="58.07" r="20.21" style="fill:url(#c)"/><circle cx="151.8" cy="58.07" r="4.76" style="fill:#fff"/><path d="M103,12.1a75.33,75.33,0,0,1,29.76,6,74.43,74.43,0,0,1,24.92,17.31c14.45,15.18,22.45,35.94,22.57,58.5-1,.84-4.81,3.46-14.13,6.07a156.25,156.25,0,0,1-23.63,4.33,360.18,360.18,0,0,1-39.49,2,360.18,360.18,0,0,1-39.49-2A156.25,156.25,0,0,1,39.88,100c-9.33-2.61-13.1-5.24-14.13-6.07.12-22.57,8.12-43.32,22.57-58.5A74.43,74.43,0,0,1,73.24,18.13a75.33,75.33,0,0,1,29.76-6M103,10A77.07,77.07,0,0,0,46.83,34C31.91,49.7,23.69,71.16,23.69,94.46a.88.88,0,0,0,.26.63c.51.54,13.37,13.2,79.05,13.32,65.68-.12,78.54-12.78,79.05-13.32a.88.88,0,0,0,.26-.63c0-23.3-8.22-44.76-23.14-60.44A77.07,77.07,0,0,0,103,10Z" style="fill:url(#d)"/><path d="M113.36,61.28h-3.67a.51.51,0,0,1-.51-.51.52.52,0,0,1,.51-.52h3.67A7.29,7.29,0,0,0,115,60.1h0c.09,0,.86-.16.86-.89a4.89,4.89,0,0,0-.18-1.07c-.53-2.3-1.09-4.28-1.45-5.58l0-.14-.14-.49c-.26-1-.94-3.51-1.68-3.51a.52.52,0,0,1,0-1c1.53,0,2.19,2.47,2.68,4.27,0,.18.09.34.13.48l0,.14c.37,1.31.93,3.3,1.47,5.62a5.93,5.93,0,0,1,.19,1.33,2,2,0,0,1-1.7,1.9A8.07,8.07,0,0,1,113.36,61.28Z" style="fill:#ebebeb"/><path d="M113.76,37.45l-.26-.11-4.32,21.11h.27a1.37,1.37,0,0,0,1.37-1.08L114.56,39a1.39,1.39,0,0,0-.8-1.54Z" style="fill:#fafafa"/><path d="M146.26,90.38A4.64,4.64,0,0,1,141.62,95H63.86a4.63,4.63,0,0,1-4.63-4.64Z" style="isolation:isolate;opacity:0.20000000298023224;fill:url(#e)"/><path d="M99.65,57.94l1.29.26h1.87l.39,0c.23,0,.64.11.91.18a.77.77,0,0,1,.48.28c.28.35,1.24,1.23,1.24,1.49,0,.06,0,.19-.21.21a8,8,0,0,1-1.58-.77l-1-.15-.26.25a3.8,3.8,0,0,0,.77.35c.26.09.26.18.26.31s0,.17-.21.19-.87-.07-1.31-.07A2.23,2.23,0,0,1,101,60h-1.8Z" style="fill:#74c2ff"/><path d="M88.32,47.89c-1,0-2.32.26-2.32,3.61,0,1.54.58,5.87,2.06,7.73,1,1.28,9.69.77,11.08.77l.51-2.06s-3.84-.82-7.91-1.5c0,0-.34-1.4-.9-4.1C90.12,48.92,89.38,47.89,88.32,47.89Z" style="fill:#1b3963"/><path d="M88.58,47.12c1.29.77,2.32,4,2.32,6.7,0,3.34-.78,7-.52,10.3a22.62,22.62,0,0,1,0,3.86h-8V47.12Z" style="fill:#22477d"/><path d="M89,86.42a1.29,1.29,0,0,1-.18-.67,1.17,1.17,0,0,1,.37-.78c1.17-1.28,1.69-1.8,1.69-1.8L93,84.72a2.8,2.8,0,0,0-.78,2.06,2.51,2.51,0,0,0,.52,1.54,2.24,2.24,0,0,1,1,2.06H92.1a1,1,0,0,1-.87-.48Z" style="fill:#212121"/><path d="M86.78,70.81a74.18,74.18,0,0,0,7.46,1.29c-1.8,4.63-4.37,11.84-4.37,11.84l3.34,1.55s7.4-10.82,7.4-14.86c0-2.14-1.73-4.71-12-6-3.59-.45-4.89,1.29-4.89,2.83C83.69,69.52,85.23,70.43,86.78,70.81Z" style="fill:#6d4c41"/><path d="M101.71,85.75A24.2,24.2,0,0,0,103,88.58c.32.66.54,1.8,1.29,1.8.45,0,5.53-2.09,6.18-2.31,0-.52-.78-1.29-2.06-1.29-1,0-2.06.25-2.58.25s-1.29-2.31-1.29-2.31Z" style="fill:#212121"/><path d="M84.2,66.18c-5.12,0-7,2.06-7,2.06s0,5.4,4.89,5.4H95.27c0,2.58,6.42,13,6.44,13.14l3.35-1.55s-3.35-10.38-5.12-14.88c-.35-.89-1.06-1.6-3-2.29-5-1.81-11.79-1.88-12.79-1.88Z" style="fill:#8d6e63"/><path d="M100.42,61.28H96.05c0-1,.51-1.28,1.54-1.28C100.17,60,100.42,61.28,100.42,61.28Z" style="fill:#fafafa"/><path d="M94,59h.77c.37,0,1.82-.52,2.58-.52a8.55,8.55,0,0,1,1.8.52,2.84,2.84,0,0,1,1,1.54c0,.19-.07.26-.26.26a13.79,13.79,0,0,0-2.06-.26c-.39,0-1.8.26-2.32.26H94ZM90.12,45.83a3.11,3.11,0,0,1-1.28-.25,3.71,3.71,0,0,0-.26,1.54c0,.52-.26,1-.77,1-4.38,0-3.61-3.6-3.61-3.6s.77-.78.77-1.29V41.2c0-3.86,1.29-5.67,4.12-5.67s4.9,2,4.9,4.12C94,42.49,92.18,45.83,90.12,45.83Z" style="fill:#74c2ff"/><path d="M89.09,34.76a4.37,4.37,0,0,0-4.63,4.64A20.76,20.76,0,0,0,85,42.49c0,.22,0,.77,0,.77a9.71,9.71,0,0,0,2.69-.64.77.77,0,0,0,.4-.65,5.58,5.58,0,0,1-.25-1.28,1,1,0,0,1,.77-1c.51,0,.77.32.77,1.29a.7.7,0,0,0,.77-.51c.15-.59.7-2.06,1.29-2.06S92.7,39.65,94,39.65C94,37.85,93.47,34.76,89.09,34.76Z" style="fill:#0037b4"/><path d="M89.61,60.51a35.56,35.56,0,0,0,.51-8c-.13-3.93-1.54-5.41-1.54-5.41a1.5,1.5,0,0,1-1,.26,4,4,0,0,1-3.35-2.32l-1.8,2.06V68H86s3.09-1.07,3.09-3.09C89.09,64.44,89.39,61.83,89.61,60.51Z" style="fill:#ffb300"/><path d="M84.2,44.55a17.46,17.46,0,0,0-4.89,5.31c-1.47,2.83-1.79,8.44-1.74,10.88C77.51,66.69,77,67.21,77,70c0,0,1,1,4.64,1s4.87-2.36,4.89-2.83a81.71,81.71,0,0,1,.51-8.5c.16-1.29,1-3.86,1-6.44a7.84,7.84,0,0,0-1.28-4.38C84.2,45.32,84.2,44.55,84.2,44.55Z" style="fill:#22477d"/><path d="M83.17,48.67c-1.8,0-2.83,1.54-2.83,6.18,0,2,.36,4.77,1.29,5.66.55.54,2.31.77,4.12.77H94V59c-3.35-.77-8.5-1.81-8.5-1.81V53C85.49,50.47,85,48.67,83.17,48.67Z" style="fill:#254e8a"/><path d="M107.38,61.28h-5.67V61a.26.26,0,0,1,.24-.26l5.15-.48a.26.26,0,0,1,.28.23Z" style="fill:#fafafa"/><path d="M107.38,61.28h-5.67l5.67-.51Z" style="fill:#e0e0e0"/><path d="M70,47.89c0,9.73,3.09,11.5,3.09,18.29,0,5.42-.38,10.55,6.86,10.55H90.9v-1.8a1.29,1.29,0,0,0-1.29-1.29H80a4.52,4.52,0,0,1-2.9-.71c-.89-.89-.88-3.47-.87-6v-.78a25.3,25.3,0,0,0-1.48-8.3,29.26,29.26,0,0,1-1.61-10,1.29,1.29,0,0,0-1.29-1.27H70Z" style="fill:#546e7a"/><path d="M89.61,78H80c-2.7,0-4.66-.65-6-2-2.17-2.18-2.15-5.52-2.15-9.07v-.77a21,21,0,0,0-1.28-7,33.39,33.39,0,0,1-1.81-11.3A1.28,1.28,0,0,1,70,46.61h1.29v1.28A30.86,30.86,0,0,0,73,58.42a23.45,23.45,0,0,1,1.4,7.76V67c0,3,0,5.83,1.39,7.25.84.83,2.2,1.24,4.18,1.24H90.9v1.29A1.28,1.28,0,0,1,89.61,78Z" style="fill:#455a64"/><path d="M82.66,77a.77.77,0,0,1-.33-1.47s4.45-2.16,4.45-5.27c0-.69-.17-1.5-1.5-1.5H73.39a.77.77,0,1,1,0-1.54H85.28a2.82,2.82,0,0,1,3,3c0,4.1-5.11,6.56-5.33,6.67a.78.78,0,0,1-.33.07Zm3.89,12.54s-.55-1-4.41-1c-2.55,0-3.64.42-4.07.67a.76.76,0,0,0-.32.27l-.34-.11-.26,0-.93-.08c0-.53.59-2.26,5.92-2.26s5.88,1.73,5.93,2.26l-1.55.12a.27.27,0,0,0,0,.12Z" style="fill:#263238"/><path d="M90.9,90.76c-.15-.61-2-2.18-8.76-2.18s-8.61,1.57-8.75,2.18V90.7l-1.55-.12c0-.59.77-3.55,10.3-3.55s10.25,3,10.3,3.55l-1.54.12A.06.06,0,0,0,90.9,90.76Z" style="fill:#546e7a"/><path d="M80.6,78h3.09v9.53H80.6Z" style="fill:#37474f"/><rect x="80.08" y="86" width="4.12" height="3.09" rx="0.77" style="fill:#455a64"/><path d="M82.14,92.19a.78.78,0,0,1-.77-.78v-3.6a.77.77,0,1,1,1.54,0h0v3.6A.77.77,0,0,1,82.14,92.19Z" style="fill:#78909c"/><path d="M81.63,91.41h1a.52.52,0,0,1,.52.52v.77a.51.51,0,0,1-.51.51h-1a.51.51,0,0,1-.51-.51v-.77A.51.51,0,0,1,81.63,91.41Z" style="fill:#263238"/><path d="M72.1,90.38h1a.51.51,0,0,1,.51.51v.77a.51.51,0,0,1-.51.51h-1a.52.52,0,0,1-.52-.52V90.9A.51.51,0,0,1,72.1,90.38Z" style="fill:#263238"/><rect x="75.96" y="89.09" width="2.06" height="1.8" rx="0.51" style="fill:#263238"/><rect x="86.26" y="89.09" width="2.06" height="1.8" rx="0.51" style="fill:#263238"/><path d="M91.15,90.38h1a.51.51,0,0,1,.51.51v.77a.52.52,0,0,1-.52.52h-1a.52.52,0,0,1-.52-.52V90.9A.51.51,0,0,1,91.15,90.38Z" style="fill:#263238"/><path d="M129.26,56.91a2.71,2.71,0,0,0-1.41-2.35l.26-.46a3.25,3.25,0,0,1,1.67,2.81Z" style="fill:#33691e"/><path d="M129.52,56.91l-.51,0a2.77,2.77,0,0,0-1.18-2.35l.3-.43A3.3,3.3,0,0,1,129.52,56.91Z" style="fill:#33691e"/><path d="M129.52,56.91a3.31,3.31,0,0,1,1.4-2.8l.3.43A2.74,2.74,0,0,0,130,56.91Z" style="fill:#33691e"/><path d="M131.71,52.27a5.49,5.49,0,0,1,2.7,1.11c-.7.28-1.18,1.14-2.43,1.3-.84.11-1-.2-1-.2s-.67-.06-.67-1a1.31,1.31,0,0,1,1.43-1.18Z" style="fill:#558b2f"/><path d="M132.05,56.11c1.19-.16,1.65-2.45,2.36-2.73-.55-.08-1.43.26-3.45,1.1C130.5,55.73,131.17,56.25,132.05,56.11Z" style="fill:#33691e"/><path d="M128.12,52.49c-1.1-.54-2.8.07-3.23.22.63.38.54,2.44,1.7,2.82.82.26,1.46,0,1.53-1.16a1,1,0,0,0,0-1.88Z" style="fill:#558b2f"/><path d="M126.59,55.53c-1.16-.38-1.07-2.44-1.7-2.82.57,0,1.39.54,3.23,1.66C128.05,55.49,127.43,55.8,126.59,55.53Zm2.67-2.74h.52v3.86h-.52Z" style="fill:#33691e"/><path d="M129.52,50a3,3,0,0,0-.77,1.9c0,1.18.77,1.18.77,1.18s.77,0,.77-.71S129.52,51.14,129.52,50Z" style="fill:#558b2f"/><path d="M126.69,57.42l.77,3.86h4.12l.77-3.86Z" style="fill:#e64a19"/><path d="M132.35,58.2h-5.66a.26.26,0,0,1-.26-.26v-1h6.18v1A.28.28,0,0,1,132.35,58.2Z" style="fill:#bf360c"/><path d="M119.22,56.39h8.24V59h-8.24Z" style="fill:#ffb300"/><path d="M120.51,56.39H121V59h-.51Zm5.15,0h.51V59h-.51Zm-3.86.77h3.09v1H121.8Z" style="fill:#ff8f00"/><path d="M119.22,59h8.24v2.31h-8.24Z" style="fill:#2e7d32"/><path d="M120.51,59H121v2.31h-.51Zm5.15,0h.51v2.31h-.51Zm-3.86.77h3.09v.77H121.8Z" style="fill:#7cb342"/><path d="M120.25,54.08h7v2.31h-7Z" style="fill:#1565c0"/><path d="M121,54.08h.52v2.31H121Zm4.9,0h.51v2.31h-.51Zm-3.61.77h2.83v.77h-2.83Z" style="fill:#64b5f6"/><path d="M123.08,50.21l.26,2.83h-1a.77.77,0,0,1-.75-.56l-.35-1.29a.78.78,0,0,1,.54-.95.76.76,0,0,1,.21,0Z" style="fill:url(#f)"/><path d="M123.62,53.3h-1.23a1,1,0,0,1-1-.76L121,51.26a1,1,0,0,1,.72-1.26,1.26,1.26,0,0,1,.27,0h1.29ZM122,50.47l-.14,0a.51.51,0,0,0-.36.63h0l.35,1.29a.52.52,0,0,0,.5.38h.67l-.21-2.32Z" style="fill:#1b3963"/><path d="M122.83,54.08h3.09a28.78,28.78,0,0,0,.51-4.9.26.26,0,0,0-.26-.26h-3.6a.26.26,0,0,0-.26.26A28.79,28.79,0,0,0,122.83,54.08Z" style="fill:#254e8a"/><path d="M133.12,76.8V90.9h-2.32V62.57h2.32Zm-11.07-.13V90.9h-2.31V62.57h2.31Z" style="fill:#4e342e"/><path d="M95.53,61.28h41.2v2.84H95.53Zm13.91,27h27.29V90.9H109.44Z" style="fill:#6d4c41"/></svg>
